<!DOCTYPE svg PUBLIC "-//W3C//DTD SVG 20010904//EN" "http://www.w3.org/TR/2001/REC-SVG-20010904/DTD/svg10.dtd">
<svg version="1.0" xmlns="http://www.w3.org/2000/svg" width="380px" height="452px" viewBox="0 0 3800 4520" preserveAspectRatio="xMidYMid meet">
<g id="layer101" fill="#fff" stroke="none">
 <path d="M0 2260 l0 -2260 1900 0 1900 0 0 2260 0 2260 -1900 0 -1900 0 0 -2260z"/>
 </g>
<g id="layer102" fill="#fff" stroke="none">
 <path d="M2210 3670 c0 -5 7 -10 15 -10 8 0 15 5 15 10 0 6 -7 10 -15 10 -8 0 -15 -4 -15 -10z"/>
 <path d="M1905 3630 c-3 -5 -1 -10 4 -10 6 0 11 5 11 10 0 6 -2 10 -4 10 -3 0 -8 -4 -11 -10z"/>
 <path d="M860 3590 c0 -5 -13 -10 -30 -10 -16 0 -30 -4 -30 -10 0 -5 -13 -10 -28 -10 -18 0 -37 -9 -51 -26 l-22 -26 25 -36 c13 -21 30 -49 37 -64 12 -27 39 -39 39 -18 0 6 7 10 15 10 8 0 15 5 15 10 0 6 7 10 15 10 8 0 15 5 15 10 0 6 30 10 69 10 61 0 70 -3 76 -20 9 -27 -3 -60 -21 -60 -8 0 -14 -4 -14 -10 0 -5 -11 -10 -25 -10 -14 0 -25 -4 -25 -8 0 -5 -16 -14 -35 -22 -19 -8 -35 -17 -35 -22 0 -4 -5 -8 -10 -8 -6 0 -25 -14 -42 -31 -28 -26 -33 -38 -36 -94 -5 -76 3 -115 23 -115 8 0 15 -9 15 -20 0 -11 7 -20 15 -20 8 0 15 -4 15 -10 0 -5 7 -10 15 -10 8 0 15 -4 15 -10 0 -5 9 -10 20 -10 11 0 20 -4 20 -10 0 -6 32 -10 75 -10 43 0 75 4 75 10 0 15 68 12 73 -2 2 -7 8 -9 13 -5 5 4 2 12 -6 17 -12 7 -10 12 9 29 19 16 22 26 16 48 -5 15 -8 31 -7 36 1 4 -2 7 -7 7 -5 0 -13 9 -16 20 -4 14 -15 20 -36 20 -16 0 -29 -4 -29 -10 0 -5 -18 -10 -39 -10 -22 0 -42 -6 -45 -12 -5 -10 -7 -10 -12 0 -3 6 -12 12 -19 12 -13 0 -25 21 -25 46 0 8 6 14 13 14 8 0 22 9 32 20 10 11 26 20 37 20 10 0 18 5 18 10 0 6 9 10 20 10 11 0 20 5 20 10 0 6 8 10 18 10 10 0 24 9 32 20 8 11 19 20 25 20 16 0 57 89 48 103 -4 7 -6 20 -4 31 4 29 -22 106 -37 106 -8 0 -16 9 -19 20 -3 11 -14 20 -24 20 -11 0 -19 5 -19 10 0 6 -11 10 -25 10 -14 0 -25 5 -25 10 0 6 -35 10 -85 10 -50 0 -85 -4 -85 -10z"/>
 <path d="M1400 3590 c0 -5 -12 -10 -26 -10 -14 0 -23 -4 -19 -10 3 -5 -3 -10 -14 -10 -12 0 -21 -4 -21 -10 0 -5 -6 -10 -14 -10 -8 0 -20 -15 -27 -32 -6 -18 -18 -48 -25 -66 -8 -22 -13 -94 -14 -200 0 -92 -2 -174 -2 -182 -1 -8 0 -34 0 -57 l2 -43 83 0 83 0 -4 175 c-6 264 5 305 87 305 22 0 41 -4 41 -10 0 -5 7 -10 15 -10 28 0 37 -77 33 -272 l-3 -188 85 0 85 0 -3 232 c-2 210 -5 237 -23 277 -11 24 -26 49 -32 56 -7 7 -19 22 -27 34 -8 11 -25 21 -37 21 -13 0 -23 5 -23 10 0 6 -40 10 -100 10 -60 0 -100 -4 -100 -10z"/>
 <path d="M1940 3590 c0 -5 -13 -10 -30 -10 -16 0 -30 -4 -30 -10 0 -5 -9 -10 -21 -10 -11 0 -17 -4 -14 -10 3 -5 -1 -10 -10 -10 -9 0 -23 -7 -32 -15 -14 -14 -14 -18 1 -34 9 -10 16 -24 16 -33 0 -8 9 -25 20 -38 11 -13 20 -27 20 -32 0 -16 36 -8 50 12 8 11 25 20 37 20 13 0 23 5 23 10 0 6 11 10 24 10 13 0 26 5 28 10 5 16 67 -11 74 -32 8 -25 -5 -58 -22 -58 -8 0 -14 -4 -14 -10 0 -5 -9 -10 -20 -10 -11 0 -20 -4 -20 -10 0 -5 -11 -10 -25 -10 -14 0 -25 -4 -25 -10 0 -5 -7 -10 -15 -10 -8 0 -15 -4 -15 -10 0 -5 -7 -10 -15 -10 -8 0 -15 -4 -15 -10 0 -5 -6 -10 -14 -10 -21 0 -49 -103 -41 -154 8 -50 35 -106 52 -106 7 0 13 -4 13 -10 0 -5 6 -10 13 -10 7 0 23 -9 35 -20 17 -16 35 -20 92 -20 40 0 70 4 70 10 0 6 14 10 30 10 17 0 30 5 30 10 0 6 11 10 24 10 13 0 26 7 30 15 9 23 -5 77 -26 99 -10 11 -18 24 -18 28 0 11 -54 -2 -58 -14 -2 -4 -17 -8 -33 -8 -16 0 -29 -4 -29 -10 0 -5 -5 -10 -11 -10 -5 0 -7 5 -4 10 4 6 -7 10 -24 10 -27 0 -31 4 -31 26 0 36 47 74 90 74 12 0 18 5 15 10 -3 6 1 10 10 10 38 0 131 84 140 126 3 13 7 35 10 49 3 14 -2 42 -11 62 -15 35 -21 57 -23 76 -1 4 -10 7 -21 7 -11 0 -20 5 -20 10 0 6 -7 10 -15 10 -8 0 -15 5 -15 10 0 6 -11 10 -25 10 -14 0 -25 5 -25 10 0 6 -37 10 -90 10 -53 0 -90 -4 -90 -10z"/>
 <path d="M2783 3593 c4 -3 10 -3 14 0 3 4 0 7 -7 7 -7 0 -10 -3 -7 -7z"/>
 <path d="M2925 3590 c4 -6 -5 -10 -19 -10 -14 0 -26 -4 -26 -10 0 -5 3 -10 8 -10 4 0 6 -67 5 -150 -2 -82 -4 -218 -5 -300 l-3 -150 78 0 77 0 0 310 0 310 -50 0 c-27 0 -50 5 -50 10 0 6 -5 10 -11 10 -5 0 -7 -4 -4 -10z"/>
 <path d="M2320 3568 c0 -7 -1 -147 -2 -311 -3 -272 -2 -297 14 -297 9 0 19 -6 21 -12 4 -10 6 -10 6 0 1 6 10 12 20 12 11 0 22 -6 24 -12 4 -10 6 -10 6 0 1 7 15 12 35 12 19 0 36 6 39 13 2 6 2 60 -1 120 l-5 107 93 0 92 0 -5 -120 -5 -120 23 0 c13 0 26 -6 29 -12 5 -10 7 -10 12 0 3 7 26 12 59 12 l53 0 -3 38 c-2 20 -4 160 -4 310 l-1 272 -85 0 -84 0 6 -94 c3 -51 3 -105 -1 -120 -6 -25 -8 -26 -86 -26 -77 0 -80 1 -86 26 -4 14 -4 68 -2 120 l5 94 -83 0 c-61 0 -84 -3 -84 -12z"/>
 <path d="M2560 3530 c0 -5 5 -10 10 -10 6 0 10 5 10 10 0 6 -4 10 -10 10 -5 0 -10 -4 -10 -10z"/>
 <path d="M1220 3510 c0 -5 5 -10 10 -10 6 0 10 5 10 10 0 6 -4 10 -10 10 -5 0 -10 -4 -10 -10z"/>
 <path d="M1766 3461 c-4 -7 -5 -15 -2 -18 9 -9 19 4 14 18 -4 11 -6 11 -12 0z"/>
 <path d="M1760 3130 c0 -5 5 -10 10 -10 6 0 10 5 10 10 0 6 -4 10 -10 10 -5 0 -10 -4 -10 -10z"/>
 <path d="M1050 2910 c0 -5 16 -10 35 -10 19 0 35 5 35 10 0 6 -16 10 -35 10 -19 0 -35 -4 -35 -10z"/>
 <path d="M713 2866 c-7 -9 -12 -80 -15 -210 l-3 -196 107 0 c60 0 110 4 113 10 3 6 17 10 31 10 14 0 24 6 24 14 0 8 11 23 25 34 14 11 25 30 25 42 0 12 5 30 11 41 13 26 2 125 -17 144 -8 7 -14 20 -14 28 0 7 -11 20 -25 27 -14 7 -25 17 -25 22 0 4 -7 8 -15 8 -8 0 -15 5 -15 10 0 6 -37 10 -90 10 -53 0 -90 4 -90 10 0 14 -13 12 -27 -4z m171 -131 c23 -23 31 -57 27 -111 -2 -31 -32 -61 -68 -66 -37 -5 -40 4 -35 125 3 73 5 77 27 77 13 0 35 -11 49 -25z"/>
 <path d="M1061 2674 c-1 -164 2 -209 13 -220 17 -16 36 -18 36 -4 0 6 36 10 89 10 50 0 93 5 96 10 3 6 15 10 25 10 24 0 30 21 29 95 -2 65 -11 90 -42 116 -20 16 -20 16 8 52 15 21 31 37 35 37 4 0 13 14 20 30 15 37 43 39 58 5 15 -33 15 -52 0 -58 -8 -2 -9 -8 -4 -13 5 -5 11 -4 13 4 8 22 20 13 28 -20 4 -18 9 -38 10 -44 2 -6 15 -33 29 -60 14 -27 26 -59 26 -71 0 -12 11 -38 24 -58 14 -20 27 -41 30 -48 5 -9 7 -9 12 1 3 6 15 12 25 12 12 0 17 -4 14 -11 -4 -6 3 -5 15 3 11 7 24 25 27 41 3 15 10 27 15 27 5 0 7 4 4 8 -3 5 2 21 10 36 7 16 14 35 14 42 0 8 5 14 10 14 6 0 10 9 10 20 0 11 5 20 11 20 5 0 8 4 5 8 -3 5 6 30 19 55 14 25 25 53 25 62 0 8 5 15 10 15 6 0 10 14 10 30 0 27 -3 30 -30 30 -16 0 -30 5 -30 10 0 19 -39 10 -45 -10 -3 -11 -11 -20 -16 -20 -5 0 -9 -5 -9 -12 0 -23 -35 -128 -42 -128 -4 0 -8 -8 -8 -19 0 -18 -26 -48 -34 -40 -2 2 -6 15 -8 29 -1 14 -5 27 -8 30 -5 5 -30 68 -33 85 -2 6 -9 25 -16 43 -13 30 -16 32 -67 32 -30 0 -54 5 -54 10 0 6 -7 10 -15 10 -8 0 -15 -4 -15 -10 0 -6 -26 -10 -58 -10 -50 0 -62 -4 -81 -26 -12 -14 -27 -36 -33 -50 -6 -13 -19 -24 -30 -24 -15 0 -18 8 -18 48 0 48 -17 89 -27 65 -6 -15 -43 -17 -43 -3 0 6 -9 10 -19 10 -19 0 -20 -9 -20 -206z m175 -79 c7 -28 -14 -55 -43 -55 -15 0 -19 8 -20 40 -2 38 0 40 27 40 23 0 31 -5 36 -25z"/>
 <path d="M1600 2870 c0 -5 5 -10 10 -10 6 0 10 5 10 10 0 6 -4 10 -10 10 -5 0 -10 -4 -10 -10z"/>
 <path d="M2030 2870 c-8 -5 -30 -10 -47 -10 -18 0 -33 -4 -33 -10 0 -5 -7 -10 -15 -10 -8 0 -15 -4 -15 -9 0 -5 -6 -16 -14 -23 -33 -33 -46 -78 -46 -157 0 -82 13 -131 36 -131 7 0 16 -9 19 -20 3 -11 13 -20 21 -20 8 0 14 -4 14 -10 0 -5 14 -10 30 -10 17 0 30 -4 30 -10 0 -5 23 -10 50 -10 28 0 50 5 50 10 0 6 7 10 15 10 20 0 83 41 90 59 3 7 -11 28 -32 47 -21 19 -39 30 -41 24 -2 -5 -10 -10 -17 -10 -8 0 -17 -9 -20 -20 -5 -15 -15 -20 -41 -20 -21 0 -33 4 -29 10 3 6 -1 10 -11 10 -9 0 -25 10 -35 21 -32 37 -19 159 18 159 5 0 15 9 23 20 15 21 50 28 50 10 0 -5 9 -10 19 -10 16 0 31 -18 31 -36 0 -2 -18 -4 -40 -4 -33 0 -41 -4 -46 -24 -3 -13 -4 -35 -2 -47 3 -23 7 -24 101 -27 l97 -3 0 66 c0 85 -34 155 -74 155 -9 0 -16 5 -16 10 0 6 -13 10 -29 10 -17 0 -33 5 -36 10 -8 13 -35 13 -55 0z"/>
 <path d="M2425 2870 c-3 -5 -20 -10 -36 -10 -18 0 -28 -4 -24 -10 3 -5 -3 -10 -14 -10 -12 0 -21 -4 -21 -10 0 -5 -7 -10 -15 -10 -8 0 -15 -6 -15 -13 0 -7 -10 -23 -21 -36 -19 -21 -21 -32 -17 -122 3 -93 6 -101 31 -125 15 -13 27 -29 27 -34 0 -6 9 -10 20 -10 11 0 20 -4 20 -10 0 -5 7 -10 15 -10 8 0 15 -4 15 -10 0 -20 107 -11 147 12 21 11 49 27 63 35 14 7 21 13 17 13 -4 0 4 11 18 25 23 24 25 33 25 110 0 80 -13 135 -32 135 -4 0 -8 8 -8 18 0 9 -13 23 -30 30 -17 8 -28 18 -24 23 3 5 -11 9 -30 9 -20 0 -36 5 -36 10 0 6 -15 10 -34 10 -19 0 -38 -4 -41 -10z m90 -124 c8 -7 11 -16 8 -20 -4 -3 -2 -6 4 -6 11 0 33 -43 33 -64 0 -7 -9 -23 -20 -36 -11 -13 -20 -30 -20 -39 0 -18 -67 -44 -76 -30 -3 5 -14 9 -24 9 -26 0 -63 84 -56 126 10 53 35 74 89 74 28 0 54 -6 62 -14z"/>
 <path d="M2760 2870 c0 -5 -16 -10 -35 -10 l-34 0 -3 -157 c-2 -87 0 -179 3 -205 6 -49 18 -73 26 -50 3 7 22 12 48 12 35 0 45 4 50 20 3 11 10 20 14 20 4 0 18 23 31 50 13 28 29 50 35 50 7 0 15 14 19 30 3 17 11 30 17 30 7 0 10 -31 7 -100 l-3 -100 53 0 52 0 0 200 0 200 -65 0 c-47 0 -65 -4 -64 -12 4 -23 -13 -48 -32 -48 -20 0 -26 -15 -9 -25 15 -9 -1 -35 -22 -35 -14 0 -18 -5 -14 -15 6 -17 -13 -65 -26 -65 -9 0 -12 52 -8 137 1 36 -3 57 -13 68 -18 17 -27 19 -27 5z"/>
 <path d="M1180 2830 c0 -7 3 -10 7 -7 3 4 3 10 0 14 -4 3 -7 0 -7 -7z"/>
 <path d="M1400 2790 c0 -5 5 -10 10 -10 6 0 10 5 10 10 0 6 -4 10 -10 10 -5 0 -10 -4 -10 -10z"/>
 <path d="M1826 2761 c-4 -7 -5 -15 -2 -18 9 -9 19 4 14 18 -4 11 -6 11 -12 0z"/>
 <path d="M1460 2570 c0 -5 5 -10 10 -10 6 0 10 5 10 10 0 6 -4 10 -10 10 -5 0 -10 -4 -10 -10z"/>
 <path d="M1420 2550 c0 -5 5 -10 10 -10 6 0 10 5 10 10 0 6 -4 10 -10 10 -5 0 -10 -4 -10 -10z"/>
 <path d="M1740 2550 c0 -5 5 -10 10 -10 6 0 10 5 10 10 0 6 -4 10 -10 10 -5 0 -10 -4 -10 -10z"/>
 <path d="M2640 2450 c0 -5 5 -10 10 -10 6 0 10 5 10 10 0 6 -4 10 -10 10 -5 0 -10 -4 -10 -10z"/>
 <path d="M2145 2430 c-3 -5 -1 -10 4 -10 6 0 11 5 11 10 0 6 -2 10 -4 10 -3 0 -8 -4 -11 -10z"/>
 <path d="M2545 2430 c3 -5 8 -10 11 -10 2 0 4 5 4 10 0 6 -5 10 -11 10 -5 0 -7 -4 -4 -10z"/>
 <path d="M2880 2430 c0 -5 5 -10 10 -10 6 0 10 5 10 10 0 6 -4 10 -10 10 -5 0 -10 -4 -10 -10z"/>
 <path d="M2940 2430 c0 -5 9 -10 20 -10 11 0 20 5 20 10 0 6 -9 10 -20 10 -11 0 -20 -4 -20 -10z"/>
 <path d="M1540 2410 c0 -5 7 -10 15 -10 8 0 15 5 15 10 0 6 -7 10 -15 10 -8 0 -15 -4 -15 -10z"/>
 <path d="M1600 2410 c0 -5 5 -10 11 -10 5 0 7 5 4 10 -3 6 -8 10 -11 10 -2 0 -4 -4 -4 -10z"/>
 <path d="M2060 2230 c0 -5 5 -10 10 -10 6 0 10 5 10 10 0 6 -4 10 -10 10 -5 0 -10 -4 -10 -10z"/>
 <path d="M1360 2192 c0 -4 -11 -19 -24 -33 -25 -27 -71 -109 -61 -109 3 0 1 -9 -5 -20 -8 -14 -11 -173 -11 -498 0 -452 1 -480 21 -531 22 -61 78 -121 113 -121 13 0 28 -5 33 -10 7 -7 86 -9 230 -6 246 5 354 13 354 27 0 5 16 9 35 9 19 0 35 5 35 10 0 6 18 10 41 10 24 0 38 4 34 10 -3 5 1 10 9 10 9 0 16 5 16 10 0 6 9 10 20 10 11 0 20 4 20 8 0 5 12 15 27 23 33 18 127 110 131 129 2 8 7 17 11 20 21 15 53 86 65 144 8 35 17 70 22 77 12 19 5 351 -8 366 -6 7 -8 20 -4 28 3 9 -3 34 -14 55 -11 22 -20 44 -20 50 0 6 -6 18 -12 25 -32 35 -38 45 -38 60 0 8 -6 15 -14 15 -8 0 -18 9 -21 20 -3 11 -11 20 -16 20 -5 0 -9 9 -9 20 0 12 -7 20 -16 20 -16 0 -76 38 -82 52 -2 4 -10 8 -18 8 -8 0 -14 5 -14 10 0 6 -11 10 -25 10 -14 0 -25 5 -25 10 0 6 -11 10 -24 10 -14 0 -28 5 -31 10 -3 6 -17 10 -31 10 -13 0 -24 5 -24 10 0 6 -25 10 -55 10 -30 0 -55 5 -55 10 0 6 -100 10 -280 10 -154 0 -280 -3 -280 -8z m555 -67 c33 -4 64 -11 69 -16 6 -5 23 -9 38 -9 15 0 28 -4 28 -10 0 -5 10 -10 23 -10 26 0 77 -21 77 -32 0 -5 6 -8 13 -8 8 0 22 -9 32 -20 10 -11 24 -20 32 -20 7 0 13 -4 13 -10 0 -5 5 -10 11 -10 19 0 39 -26 39 -50 0 -5 6 -10 14 -10 21 0 27 -28 8 -39 -9 -5 -13 -13 -9 -17 5 -5 12 -2 18 6 8 13 10 13 19 0 5 -8 10 -23 10 -32 0 -10 7 -18 15 -18 9 0 15 -9 15 -23 0 -13 4 -27 10 -33 5 -5 10 -26 12 -47 1 -20 6 -37 10 -37 15 0 9 -258 -7 -324 -17 -68 -64 -176 -77 -176 -4 0 -8 -7 -8 -15 0 -17 -84 -105 -100 -105 -5 0 -10 -4 -10 -10 0 -5 -7 -10 -15 -10 -8 0 -15 -3 -15 -7 0 -9 -49 -33 -67 -33 -7 0 -13 -4 -13 -10 0 -5 -11 -10 -24 -10 -14 0 -28 -4 -31 -10 -3 -5 -24 -10 -46 -10 -21 0 -39 -4 -39 -9 0 -19 -419 -37 -492 -22 -74 16 -108 33 -108 53 0 10 -4 18 -9 18 -4 0 -13 39 -20 88 -16 118 -11 901 7 953 16 47 44 79 70 79 11 0 24 5 27 11 7 11 364 6 480 -6z"/>
 <path d="M1725 2009 c-117 -78 -179 -140 -216 -215 -30 -61 -53 -170 -37 -180 4 -3 8 1 8 9 0 28 88 134 151 181 76 57 149 96 181 96 43 0 194 -143 182 -173 -12 -32 -91 -52 -307 -76 -58 -7 -101 -18 -122 -31 -36 -22 -94 -103 -126 -176 -22 -49 -35 -142 -22 -160 14 -19 144 -114 182 -133 29 -15 167 -51 196 -51 15 0 2 -40 -17 -53 -21 -14 -19 -14 30 -2 29 7 64 21 77 29 14 9 26 12 30 6 8 -13 -21 -66 -47 -85 l-23 -17 25 7 c42 12 68 33 110 90 40 54 59 62 61 27 0 -9 5 -3 10 14 13 45 66 101 81 86 22 -22 31 -12 25 27 -5 40 13 71 41 71 15 0 16 -17 2 -25 -5 -3 -10 -13 -10 -20 0 -9 12 -2 30 17 31 31 38 65 21 97 -13 23 -84 27 -109 5 -44 -39 -105 -84 -113 -84 -5 0 -9 9 -9 20 0 13 11 24 33 33 34 15 68 47 48 47 -16 0 -14 16 5 35 9 9 24 13 35 10 27 -9 25 20 -3 39 -31 22 -85 20 -115 -4 -14 -11 -33 -20 -42 -20 -11 0 -8 -7 13 -25 l28 -24 -23 -10 c-13 -6 -42 -15 -65 -21 -46 -11 -94 -50 -94 -76 0 -16 1 -16 19 0 21 19 52 18 58 -1 10 -30 -149 -28 -210 3 -82 41 -113 108 -64 138 12 7 81 21 153 30 162 21 304 50 344 71 17 9 35 28 41 43 14 37 -12 161 -47 220 -35 60 -132 157 -209 209 -103 69 -90 69 -190 2z m365 -761 c-21 -23 -36 -19 -27 7 4 8 16 15 27 15 l21 0 -21 -22z"/>
 <path d="M2340 2070 c0 -7 3 -10 7 -7 3 4 3 10 0 14 -4 3 -7 0 -7 -7z"/>
 </g>
<g id="layer103" fill="#bd2525" stroke="none">
 <path d="M869 3581 c-47 -10 -149 -59 -149 -72 0 -8 43 -90 57 -108 1 -2 29 10 62 28 95 50 181 38 181 -27 0 -29 -22 -48 -104 -89 -111 -55 -146 -97 -146 -172 0 -148 152 -225 323 -161 31 12 57 26 57 31 0 5 -11 32 -25 59 l-25 49 -42 -19 c-57 -26 -112 -26 -138 0 -40 40 -19 64 103 124 98 48 138 90 145 154 8 84 -26 150 -96 186 -34 18 -154 28 -203 17z"/>
 <path d="M1450 3585 c-8 -2 -32 -6 -53 -10 -42 -7 -99 -52 -125 -99 -15 -27 -17 -64 -17 -271 l0 -240 50 -1 c92 -1 85 -17 85 207 0 199 4 232 35 262 17 18 100 24 120 9 37 -27 40 -43 45 -261 l5 -216 34 -3 c19 -2 50 -1 69 3 l34 6 -4 237 c-2 177 -6 243 -17 262 -22 40 -64 81 -99 95 -33 14 -135 27 -162 20z"/>
 <path d="M1959 3581 c-46 -9 -149 -59 -149 -72 0 -5 12 -31 28 -59 26 -47 44 -61 56 -41 12 19 98 51 139 51 48 0 77 -22 77 -58 0 -29 -22 -48 -111 -92 -85 -43 -126 -87 -136 -144 -19 -119 71 -210 206 -208 69 1 171 35 171 57 0 7 -10 33 -22 57 -13 23 -23 44 -24 46 -1 1 -22 -7 -48 -18 -61 -26 -110 -26 -136 0 -11 11 -20 24 -20 29 0 21 41 53 110 87 119 57 160 106 160 189 0 71 -35 126 -102 161 -32 17 -149 26 -199 15z"/>
 <path d="M2330 3276 l0 -303 38 -6 c20 -2 51 -4 67 -3 l30 1 3 123 3 122 99 0 99 0 3 -122 3 -122 34 -4 c19 -2 50 -1 68 3 l33 6 -2 302 -3 302 -67 3 -68 3 0 -126 0 -125 -100 0 -100 0 0 125 0 125 -70 0 -70 0 0 -304z"/>
 <path d="M2900 3270 l0 -310 70 0 70 0 0 310 0 310 -70 0 -70 0 0 -310z"/>
 <path d="M717 2853 c-4 -3 -7 -93 -7 -200 l0 -193 78 0 c112 1 178 34 217 110 53 104 -1 235 -114 275 -43 15 -162 21 -174 8z m148 -87 c106 -45 71 -226 -45 -226 -19 0 -20 6 -20 120 0 133 0 133 65 106z"/>
 <path d="M1077 2853 c-4 -3 -7 -93 -7 -200 l0 -193 88 0 c134 0 182 33 182 127 0 35 -6 48 -36 78 l-36 36 39 47 c21 26 48 58 60 72 13 14 23 28 23 32 0 5 -24 8 -52 8 -48 0 -55 -3 -75 -33 -12 -17 -40 -52 -62 -77 l-40 -45 -1 78 0 77 -38 0 c-21 0 -42 -3 -45 -7z m151 -229 c25 -17 29 -56 9 -73 -8 -6 -28 -14 -45 -17 l-32 -6 0 56 c0 52 2 56 23 56 12 0 33 -7 45 -16z"/>
 <path d="M1420 2856 c0 -3 26 -67 58 -143 32 -76 69 -164 81 -195 22 -56 25 -58 60 -58 l36 0 44 108 c24 59 57 139 73 177 54 128 54 115 -2 115 l-49 0 -48 -125 c-26 -69 -51 -125 -54 -125 -5 0 -37 80 -91 223 -9 24 -15 27 -59 27 -27 0 -49 -2 -49 -4z"/>
 <path d="M1965 2841 c-136 -82 -138 -285 -4 -360 64 -36 164 -28 222 18 22 18 22 20 -8 55 l-25 29 -23 -21 c-25 -24 -84 -30 -118 -12 -65 35 -65 166 1 217 41 33 130 0 130 -47 0 -17 -7 -20 -45 -20 -43 0 -45 -1 -45 -30 l0 -30 95 0 95 0 0 34 c0 71 -41 140 -102 172 -39 21 -136 18 -173 -5z"/>
 <path d="M2360 2839 c-42 -26 -55 -41 -80 -94 -25 -51 -25 -119 0 -170 25 -53 38 -68 80 -94 42 -25 130 -28 183 -6 46 19 92 75 107 132 26 90 -26 204 -107 238 -53 22 -141 19 -183 -6z m143 -70 c30 -14 57 -68 57 -115 0 -100 -102 -150 -169 -83 -27 27 -31 37 -31 87 1 95 66 146 143 111z"/>
 <path d="M2700 2661 l0 -201 44 0 43 0 74 116 c40 63 77 118 81 120 4 3 8 -49 8 -115 l0 -121 45 0 45 0 0 200 0 200 -44 0 -45 0 -56 -87 c-31 -49 -67 -103 -78 -120 l-22 -33 -5 118 -5 117 -42 3 -43 3 0 -200z"/>
 <path d="M1392 2183 c-38 -8 -87 -66 -106 -125 -15 -50 -17 -103 -14 -549 l3 -494 27 -46 c20 -33 41 -53 75 -70 47 -23 55 -24 288 -24 239 1 279 5 400 42 131 40 252 125 314 221 134 210 133 591 -3 787 -60 86 -195 188 -288 216 -18 6 -55 17 -83 25 -38 12 -117 16 -320 19 -148 2 -280 1 -293 -2z m592 -63 c223 -52 347 -159 417 -360 20 -56 23 -86 23 -215 1 -96 -4 -170 -13 -205 -24 -98 -70 -181 -138 -247 -132 -131 -284 -173 -627 -173 -199 0 -243 7 -282 42 -41 37 -44 73 -44 577 0 526 1 531 58 578 26 22 33 23 274 23 212 0 260 -3 332 -20z"/>
 <path d="M1725 2009 c-169 -113 -246 -217 -252 -343 -3 -50 -1 -57 7 -36 45 103 250 270 332 270 43 0 194 -143 182 -173 -12 -32 -91 -52 -307 -76 -58 -7 -101 -18 -122 -31 -36 -22 -94 -103 -126 -176 -22 -49 -35 -142 -22 -160 14 -19 144 -114 182 -133 29 -15 167 -51 196 -51 13 0 3 -40 -12 -50 -32 -20 59 0 94 20 18 11 35 15 38 10 8 -13 -21 -66 -47 -85 l-23 -17 25 7 c42 12 68 33 110 90 40 54 59 62 61 27 0 -9 5 -3 10 14 13 45 66 101 81 86 22 -22 31 -12 25 27 -5 40 13 71 41 71 15 0 16 -17 2 -25 -5 -3 -10 -13 -10 -20 0 -9 12 -2 30 17 31 31 38 65 21 97 -13 23 -84 27 -109 5 -44 -39 -105 -84 -113 -84 -5 0 -9 9 -9 20 0 13 11 24 33 33 34 15 68 47 48 47 -16 0 -14 16 5 35 9 9 24 13 35 10 27 -9 25 20 -3 39 -31 22 -85 20 -115 -4 -14 -11 -33 -20 -42 -20 -11 0 -8 -7 13 -25 l28 -24 -23 -10 c-13 -6 -42 -15 -65 -21 -46 -11 -94 -50 -94 -76 0 -16 1 -16 19 0 21 19 52 18 58 -1 10 -30 -149 -28 -210 3 -82 41 -113 108 -64 138 12 7 81 21 153 30 162 21 304 50 344 71 17 9 35 28 41 43 14 37 -12 161 -47 220 -35 60 -132 157 -209 209 -103 69 -90 69 -190 2z m366 -762 c-15 -15 -24 -18 -32 -10 -8 8 -4 15 12 26 31 22 46 9 20 -16z"/>
 </g>

</svg>