<svg xmlns="http://www.w3.org/2000/svg" xmlns:xlink="http://www.w3.org/1999/xlink" xmlns:xodm="http://www.corel.com/coreldraw/odm/2003" xml:space="preserve" width="100mm" height="50mm" version="1.1" style="shape-rendering:geometricPrecision; text-rendering:geometricPrecision; image-rendering:optimizeQuality; fill-rule:evenodd; clip-rule:evenodd" viewBox="0 0 0 0">
 <defs>
  <style type="text/css">
   <![CDATA[
    .fil1 {fill:#BD2525;fill-rule:nonzero}
    .fil0 {fill:white;fill-rule:nonzero}
   ]]>
  </style>
 </defs>
 <g id="Camada_x0020_1">
  <metadata id="CorelCorpID_0Corel-Layer"/>
  <g id="layer101">
   <polygon class="fil0" points="784.73,9642.6 19618.42,9642.6 19618.42,15913.26 784.73,15913.26 "/>
  </g>
  <g id="layer102">
   <path class="fil1" d="M1342.89 15844.74c-221.05,-71.84 -436.58,-326.05 -513.95,-613.42 -38.68,-143.68 -55.26,-978.16 -44.21,-2442.63 16.58,-2116.58 22.11,-2232.63 127.11,-2415 66.32,-105 198.95,-237.63 303.95,-303.95 176.84,-99.47 281.84,-110.53 1381.58,-105 956.05,0 1260,22.11 1547.37,99.47 1359.47,370.26 2000.53,1188.16 2077.89,2658.16 88.42,1575 -602.37,2602.89 -2022.63,3011.84 -348.16,99.47 -591.32,121.58 -1547.37,143.68 -652.11,11.05 -1204.74,-5.53 -1309.74,-33.16l0 0.01zm2249.22 -226.58c1503.16,-187.89 2304.47,-983.68 2409.47,-2403.95 127.11,-1657.89 -635.53,-2713.42 -2155.26,-2978.68 -674.21,-116.05 -2160.79,-116.05 -2453.68,5.53 -370.26,143.68 -370.26,127.11 -386.84,2591.84 -22.11,2989.74 -88.42,2840.53 1287.63,2846.05 458.68,0 1038.95,-27.63 1298.68,-60.79z"/>
   <path class="fil1" d="M2718.95 14982.63c-657.63,-453.16 -967.11,-889.74 -1033.42,-1464.47l-33.16 -298.42 121.58 221.05c243.16,442.11 1132.89,1132.89 1458.95,1132.89 138.16,0 801.32,-596.84 801.32,-723.95 0,-154.74 -281.84,-270.79 -817.89,-331.58 -265.26,-33.16 -585.79,-71.84 -712.89,-82.89 -127.11,-16.58 -309.47,-82.89 -414.47,-149.21 -342.63,-232.11 -768.16,-1132.89 -668.68,-1409.21 49.74,-132.63 580.26,-558.16 873.16,-696.32 110.53,-55.26 348.16,-121.58 530.53,-160.26 309.47,-55.26 331.58,-71.84 309.47,-187.89 -27.63,-149.21 77.37,-165.79 292.89,-44.21 292.89,165.79 359.21,77.37 132.63,-187.89 -77.37,-93.95 -127.11,-171.32 -105,-171.32 121.58,0 375.79,198.95 530.53,414.47 187.89,265.26 270.79,309.47 270.79,154.74 0,-55.26 55.26,16.58 127.11,149.21 105,210 143.68,248.68 276.32,237.63 143.68,-11.05 154.74,0 138.16,187.89 -11.05,138.16 11.05,215.53 77.37,254.21 116.05,77.37 198.95,5.53 110.53,-82.89 -127.11,-127.11 -66.32,-154.74 71.84,-33.16 132.63,116.05 171.32,276.32 105,453.16 -38.68,99.47 -370.26,121.58 -480.79,33.16 -226.58,-187.89 -502.89,-386.84 -541.58,-386.84 -121.58,0 -33.16,165.79 149.21,270.79 105,66.32 176.84,143.68 160.26,171.32 -49.74,82.89 77.37,221.05 198.95,221.05 121.58,0 132.63,60.79 38.68,154.74 -99.47,99.47 -436.58,77.37 -613.42,-38.68l-160.26 -105 121.58 -82.89c138.16,-93.95 121.58,-105 -232.11,-204.47 -254.21,-66.32 -486.32,-226.58 -486.32,-337.11 0,-33.16 38.68,-33.16 105,5.53 116.05,55.26 298.42,16.58 254.21,-55.26 -49.74,-82.89 -408.95,-110.53 -674.21,-55.26 -392.37,88.42 -679.74,292.89 -679.74,491.84 0,88.42 33.16,182.37 71.84,210 33.16,33.16 375.79,99.47 757.11,154.74 762.63,99.47 1530.79,276.32 1652.37,375.79 55.26,44.21 66.32,154.74 49.74,397.89 -38.68,420 -243.16,840 -585.79,1182.63 -287.37,287.37 -900.79,723.95 -1016.84,723.95 -44.21,0 -281.84,-138.16 -530.53,-309.47l-0.03 -0.03zm1812.63 -3277.1c0,-71.84 -160.26,-193.42 -204.47,-154.74 -38.68,44.21 82.89,204.47 154.74,204.47 27.63,0 49.74,-22.11 49.74,-49.74l-0.01 0.01z"/>
   <path class="fil1" d="M7477.11 15817.11c-292.89,-82.89 -679.74,-292.89 -679.74,-375.79 0,-38.68 248.68,-497.37 315,-585.79 5.53,-11.05 160.26,55.26 342.63,154.74 497.37,265.26 1000.26,204.47 1000.26,-127.11 0,-165.79 -176.84,-320.53 -602.37,-525 -569.21,-270.79 -779.21,-525 -779.21,-939.47 0,-408.95 221.05,-751.58 602.37,-928.42 259.74,-127.11 790.26,-110.53 1182.63,38.68 359.21,138.16 375.79,187.89 143.68,574.74l-110.53 193.42 -232.11 -110.53c-309.47,-138.16 -613.42,-138.16 -757.11,5.53 -221.05,221.05 -127.11,331.58 530.53,657.63 237.63,116.05 519.47,303.95 624.47,414.47 165.79,171.32 193.42,243.16 215.53,519.47 33.16,464.21 -138.16,768.16 -563.68,989.21 -226.58,116.05 -884.21,143.68 -1232.37,44.21l0.02 0.01z"/>
   <path class="fil1" d="M10803.95 15877.89c-27.63,-16.58 -149.21,-38.68 -265.26,-60.79 -232.11,-38.68 -547.11,-287.37 -690.79,-547.11 -82.89,-149.21 -93.95,-353.68 -93.95,-1497.63l0 -1326.32 359.21 0 359.21 0 27.63 1193.68c27.63,1204.74 44.21,1293.16 248.68,1442.37 33.16,22.11 165.79,44.21 303.95,44.21 138.16,0 276.32,-22.11 303.95,-44.21 204.47,-149.21 221.05,-237.63 248.68,-1442.37l27.63 -1193.68 243.16 -16.58c138.16,-11.05 303.95,-5.53 375.79,16.58l127.11 27.63 0 1204.74c0,663.16 -27.63,1293.16 -60.79,1409.21 -66.32,237.63 -326.05,558.16 -541.58,674.21 -143.68,71.84 -862.11,154.74 -972.63,116.05l0 0.01z"/>
   <path class="fil1" d="M13611.32 15850.26c-259.74,-66.32 -790.26,-337.11 -790.26,-397.89 0,-44.21 232.11,-486.32 309.47,-596.84 11.05,-11.05 171.32,60.79 359.21,154.74 519.47,259.74 989.21,198.95 989.21,-132.63 0,-182.37 -110.53,-276.32 -613.42,-530.53 -552.63,-276.32 -768.16,-541.58 -768.16,-945 0,-303.95 55.26,-442.11 270.79,-668.68 210,-226.58 480.79,-326.05 884.21,-326.05 381.32,5.53 945,193.42 945,315 0,38.68 -55.26,182.37 -121.58,315 -71.84,127.11 -127.11,243.16 -132.63,254.21 -5.53,5.53 -121.58,-38.68 -265.26,-99.47 -337.11,-143.68 -607.89,-143.68 -751.58,0 -60.79,60.79 -110.53,132.63 -110.53,160.26 0,116.05 226.58,298.42 635.53,497.37 696.32,348.16 856.58,530.53 856.58,983.68 0,641.05 -375.79,989.21 -1110.79,1038.95 -226.58,11.05 -486.32,0 -585.79,-22.11l0 -0.01z"/>
   <polygon class="fil1" points="15705.79,14148.16 15722.37,12446.05 16081.58,12446.05 16440.79,12446.05 16457.37,13125.79 16473.95,13800 17021.06,13800 17568.17,13800 17584.75,13125.79 17601.33,12446.05 17960.54,12446.05 18319.75,12446.05 18319.75,14131.58 18319.75,15817.11 17949.49,15833.69 17573.7,15850.27 17573.7,15153.95 17573.7,14463.16 17021.07,14463.16 16468.44,14463.16 16468.44,15153.95 16468.44,15844.74 16081.6,15844.74 15694.76,15844.74 15705.81,14148.16 "/>
   <polygon class="fil1" points="18844.74,14131.58 18844.74,12418.42 19231.58,12418.42 19618.42,12418.42 19618.42,14131.58 19618.42,15844.74 19231.58,15844.74 18844.74,15844.74 "/>
   <path class="fil1" d="M6780.79 11827.11c-22.11,-16.58 -38.68,-502.89 -38.68,-1077.63l0 -1038.95 491.84 0c558.16,0 701.84,38.68 911.84,248.68 226.58,226.58 326.05,469.74 326.05,801.32 0,679.74 -502.89,1105.26 -1315.26,1105.26 -187.89,0 -359.21,-16.58 -375.79,-38.68zm823.42 -486.32c315,-127.11 447.63,-574.74 270.79,-911.84 -88.42,-176.84 -337.11,-331.58 -525,-331.58 -105,0 -110.53,33.16 -110.53,663.16 0,735 0,735 364.74,580.26z"/>
   <path class="fil1" d="M8770.26 11827.11c-22.11,-16.58 -38.68,-502.89 -38.68,-1066.58l0 -1033.42 491.84 -38.68c397.89,-33.16 525,-22.11 663.16,44.21 243.16,127.11 337.11,298.42 337.11,607.89 0,237.63 -22.11,292.89 -198.95,458.68l-198.95 187.89 215.53 254.21c116.05,138.16 265.26,315 331.58,397.89 66.32,77.37 121.58,160.26 127.11,187.89 0,22.11 -132.63,38.68 -287.37,38.68l-292.89 -5.53 -331.58 -425.53 -331.58 -420 -16.58 425.53 -16.58 425.53 -210 0c-116.05,0 -226.58,-16.58 -243.16,-38.68l-0.01 0.02zm834.48 -1265.53c176.84,-121.58 143.68,-353.68 -60.79,-453.16 -243.16,-116.05 -315,-55.26 -315,265.26 0,248.68 11.05,276.32 127.11,276.32 66.32,0 182.37,-38.68 248.68,-88.42z"/>
   <path class="fil1" d="M10665.79 11849.21c0,-11.05 138.16,-353.68 309.47,-762.63 165.79,-408.95 370.26,-895.26 447.63,-1083.16 132.63,-337.11 143.68,-348.16 342.63,-348.16 187.89,0 204.47,16.58 315,292.89 66.32,154.74 248.68,596.84 408.95,978.16 154.74,381.32 309.47,746.05 337.11,817.89 44.21,116.05 33.16,121.58 -221.05,121.58l-270.79 0 -259.74 -663.16c-143.68,-364.74 -281.84,-674.21 -303.95,-690.79 -22.11,-16.58 -105,143.68 -182.37,348.16 -77.37,204.47 -193.42,513.95 -259.74,690.79l-116.05 315 -276.32 0c-149.21,0 -270.79,-11.05 -270.79,-16.58l0.01 0.01z"/>
   <path class="fil1" d="M13677.63 11760.79c-530.53,-320.53 -723.95,-1011.32 -436.58,-1563.95 110.53,-215.53 176.84,-281.84 414.47,-425.53 259.74,-160.26 834.47,-160.26 1088.68,-5.53 243.16,149.21 270.79,243.16 99.47,414.47l-143.68 143.68 -149.21 -110.53c-154.74,-127.11 -453.16,-154.74 -630,-60.79 -315,171.32 -359.21,812.37 -77.37,1105.26 204.47,210 502.89,226.58 679.74,38.68 204.47,-215.53 160.26,-315 -127.11,-315 -237.63,0 -248.68,-5.53 -248.68,-165.79l0 -165.79 525 0 525 0 0 215.53c0,392.37 -215.53,740.53 -563.68,922.89 -215.53,116.05 -751.58,99.47 -956.05,-27.63l0 0.03z"/>
   <path class="fil1" d="M15860.53 11749.74c-497.37,-303.95 -690.79,-945 -442.11,-1458.95 138.16,-292.89 210,-375.79 442.11,-519.47 232.11,-138.16 718.42,-154.74 1011.32,-33.16 254.21,105 508.42,414.47 591.32,729.47 143.68,497.37 -143.68,1127.37 -591.32,1315.26 -292.89,121.58 -779.21,105 -1011.32,-33.16l0 0.01zm817.89 -414.48c176.84,-121.58 287.37,-370.26 287.37,-635.53 0,-453.16 -536.05,-768.16 -862.11,-502.89 -176.84,143.68 -243.16,303.95 -243.16,602.37 5.53,491.84 458.68,790.26 817.89,536.05l0.01 0z"/>
   <path class="fil1" d="M17739.47 10766.05l0 -1110.79 243.16 0 243.16 0 348.16 558.16c580.26,917.37 541.58,906.32 547.11,121.58l0 -679.74 248.68 0 248.68 0 0 1105.26 0 1105.26 -248.68 0 -243.16 0 -442.11 -674.21 -442.11 -679.74 -16.58 663.16 -16.58 663.16 -232.11 16.58 -237.63 16.58 0 -1105.26 0.01 0z"/>
  </g>
  <g id="layer103">
   <path class="fil1" d="M1237.89 15783.95c-121.58,-60.79 -287.37,-309.47 -381.32,-558.16 -33.16,-99.47 -44.21,-928.42 -27.63,-2276.84 16.58,-1166.05 5.53,-2111.05 -16.58,-2094.47 -49.74,27.63 5.53,-243.16 82.89,-386.84 99.47,-193.42 237.63,-320.53 425.53,-403.42 265.26,-110.53 2160.79,-105 2658.16,5.53 497.37,116.05 1105.26,353.68 1105.26,425.53 0,27.63 22.11,44.21 49.74,44.21 99.47,0 464.21,375.79 425.53,436.58 -22.11,33.16 -143.68,-27.63 -331.58,-182.37 -414.47,-337.11 -768.16,-486.32 -1442.37,-613.42 -88.42,-16.58 -652.11,-33.16 -1248.95,-38.68 -1210.26,-11.05 -1282.11,5.53 -1470,359.21 -88.42,160.26 -99.47,375.79 -99.47,2415 0,2962.11 -93.95,2768.68 1403.68,2757.63 502.89,0 978.16,0 1050,0 193.42,5.53 956.05,-143.68 1127.37,-221.05 82.89,-38.68 149.21,-88.42 149.21,-116.05 0,-22.11 38.68,-44.21 88.42,-44.21 165.79,0 790.26,-552.63 795.79,-701.84 0,-38.68 22.11,-71.84 44.21,-71.84 27.63,0 88.42,-105 143.68,-232.11 49.74,-132.63 116.05,-281.84 143.68,-331.58 33.16,-55.26 77.37,-320.53 110.53,-591.32 44.21,-386.84 38.68,-618.95 -22.11,-1033.42 -44.21,-298.42 -71.84,-558.16 -60.79,-580.26 16.58,-22.11 -11.05,-55.26 -60.79,-71.84 -55.26,-22.11 -71.84,-71.84 -49.74,-149.21 27.63,-71.84 16.58,-105 -16.58,-82.89 -66.32,38.68 -303.95,-337.11 -259.74,-414.47 22.11,-27.63 49.74,-49.74 71.84,-49.74 110.53,0 458.68,828.95 530.53,1276.58 71.84,425.53 38.68,1232.37 -66.32,1597.11 -198.95,679.74 -574.74,1248.95 -768.16,1177.11 -66.32,-27.63 -82.89,-11.05 -55.26,55.26 38.68,99.47 -5.53,138.16 -348.16,326.05 -226.58,127.11 -740.53,309.47 -939.47,337.11 -44.21,11.05 -105,27.63 -138.16,44.21 -110.53,60.79 -2486.84,49.74 -2602.89,-11.05l0.02 -0.04z"/>
   <path class="fil1" d="M7543.42 15789.47c22.11,-33.16 -22.11,-55.26 -110.53,-55.26 -127.11,0 -342.63,-88.42 -414.47,-171.32 -16.58,-16.58 -71.84,-44.21 -121.58,-66.32 -82.89,-27.63 -88.42,-55.26 -33.16,-176.84 33.16,-77.37 82.89,-138.16 110.53,-138.16 22.11,0 44.21,-38.68 44.21,-82.89 0,-49.74 38.68,-99.47 82.89,-116.05 44.21,-22.11 66.32,-55.26 49.74,-88.42 -16.58,-27.63 16.58,-22.11 82.89,22.11 66.32,38.68 116.05,88.42 116.05,110.53 0,27.63 49.74,44.21 110.53,44.21 60.79,0 110.53,27.63 110.53,55.26 0,33.16 154.74,55.26 359.21,55.26 386.84,0 635.53,-105 635.53,-270.79 0,-77.37 -11.05,-77.37 -55.26,-5.53 -38.68,60.79 -55.26,38.68 -55.26,-93.95 0,-138.16 -33.16,-187.89 -165.79,-248.68 -88.42,-38.68 -165.79,-88.42 -165.79,-110.53 0,-27.63 -38.68,-44.21 -82.89,-44.21 -44.21,0 -82.89,-22.11 -82.89,-55.26 0,-27.63 -49.74,-55.26 -110.53,-55.26 -116.05,0 -243.16,-88.42 -530.53,-375.79 -165.79,-165.79 -182.37,-210 -176.84,-508.42 0,-182.37 27.63,-331.58 55.26,-331.58 27.63,0 33.16,-22.11 16.58,-55.26 -16.58,-27.63 -5.53,-55.26 22.11,-55.26 33.16,0 60.79,-27.63 60.79,-60.79 0,-27.63 -27.63,-38.68 -66.32,-16.58 -33.16,22.11 -44.21,16.58 -27.63,-22.11 22.11,-27.63 93.95,-44.21 154.74,-27.63 99.47,27.63 110.53,16.58 77.37,-88.42 -27.63,-82.89 -11.05,-116.05 49.74,-116.05 49.74,0 88.42,-22.11 88.42,-55.26 0,-27.63 49.74,-55.26 105,-55.26 60.79,0 127.11,-22.11 143.68,-55.26 16.58,-27.63 193.42,-55.26 392.37,-55.26 198.95,0 353.68,22.11 353.68,55.26 0,33.16 77.37,55.26 171.32,55.26 93.95,0 154.74,22.11 132.63,55.26 -22.11,33.16 27.63,55.26 105,55.26 105,0 143.68,27.63 143.68,110.53 0,127.11 -22.11,132.63 -165.79,55.26 -77.37,-38.68 -105,-27.63 -127.11,55.26 -33.16,138.16 5.53,176.84 132.63,105 82.89,-38.68 93.95,-33.16 71.84,33.16 -22.11,44.21 -55.26,82.89 -82.89,82.89 -27.63,0 -49.74,38.68 -49.74,88.42 0,60.79 -33.16,77.37 -121.58,44.21 -71.84,-16.58 -132.63,-60.79 -143.68,-82.89 -33.16,-77.37 -674.21,-60.79 -751.58,22.11 -116.05,116.05 -143.68,309.47 -44.21,364.74 71.84,44.21 77.37,66.32 16.58,138.16 -44.21,49.74 -49.74,88.42 -16.58,88.42 33.16,0 71.84,-33.16 88.42,-66.32 27.63,-55.26 38.68,-55.26 66.32,0 16.58,33.16 77.37,66.32 138.16,66.32 55.26,0 105,27.63 105,55.26 0,33.16 33.16,55.26 71.84,55.26 99.47,0 370.26,132.63 370.26,182.37 0,22.11 33.16,38.68 71.84,38.68 88.42,0 337.11,215.53 414.47,370.26 88.42,160.26 82.89,497.37 0,530.53 -55.26,22.11 -55.26,38.68 0,82.89 60.79,38.68 55.26,88.42 -22.11,248.68 -77.37,160.26 -127.11,204.47 -248.68,204.47 -127.11,0 -143.68,16.58 -121.58,116.05 27.63,105 16.58,116.05 -110.53,93.95 -88.42,-16.58 -138.16,-5.53 -132.63,33.16 5.53,38.68 -165.79,66.32 -502.89,77.37 -348.16,11.05 -508.42,-5.53 -480.79,-44.21zm-287.37 -464.21c22.11,-55.26 5.53,-71.84 -49.74,-49.74 -38.68,16.58 -77.37,49.74 -77.37,77.37 0,77.37 93.95,55.26 127.11,-27.63zm978.16 22.11c0,-27.63 -22.11,-55.26 -55.26,-55.26 -27.63,0 -55.26,27.63 -55.26,55.26 0,33.16 27.63,55.26 55.26,55.26 33.16,0 55.26,-22.11 55.26,-55.26zm773.68 0c0,-27.63 -38.68,-55.26 -88.42,-55.26 -44.21,0 -66.32,27.63 -49.74,55.26 16.58,33.16 55.26,55.26 88.42,55.26 27.63,0 49.74,-22.11 49.74,-55.26zm-1768.42 -221.05c0,-27.63 -22.11,-55.26 -55.26,-55.26 -27.63,0 -55.26,27.63 -55.26,55.26 0,33.16 27.63,55.26 55.26,55.26 33.16,0 55.26,-22.11 55.26,-55.26zm1785 -281.85c27.63,-16.58 11.05,-49.74 -38.68,-66.32 -66.32,-27.63 -88.42,0 -88.42,82.89 0,66.32 16.58,93.95 44.21,66.32 22.11,-27.63 60.79,-66.32 82.89,-82.89zm-475.26 -337.1c-16.58,-44.21 -33.16,-27.63 -33.16,33.16 -5.53,60.79 11.05,93.95 27.63,71.84 16.58,-16.58 22.11,-66.32 5.53,-105zm569.21 66.31c0,-27.63 -22.11,-55.26 -55.26,-55.26 -27.63,0 -55.26,27.63 -55.26,55.26 0,33.16 27.63,55.26 55.26,55.26 33.16,0 55.26,-22.11 55.26,-55.26zm-635.53 -221.05c-16.58,-27.63 -55.26,-55.26 -88.42,-55.26 -27.63,0 -49.74,27.63 -49.74,55.26 0,33.16 38.68,55.26 88.42,55.26 44.21,0 66.32,-22.11 49.74,-55.26zm-707.36 -259.74c-22.11,-16.58 -38.68,0 -38.68,38.68 0,38.68 16.58,55.26 38.68,38.68 16.58,-22.11 16.58,-55.26 0,-77.37l0 0.01zm-204.48 -292.89c0,-27.63 -49.74,-55.26 -110.53,-55.26 -60.79,0 -110.53,27.63 -110.53,55.26 0,33.16 49.74,55.26 110.53,55.26 60.79,0 110.53,-22.11 110.53,-55.26zm-221.05 -221.05c0,-27.63 -11.05,-55.26 -22.11,-55.26 -16.58,0 -44.21,27.63 -60.79,55.26 -16.58,33.16 -5.53,55.26 22.11,55.26 33.16,0 60.79,-22.11 60.79,-55.26zm370.26 -38.69c-22.11,-16.58 -38.68,0 -38.68,38.68 0,38.68 16.58,55.26 38.68,38.68 16.58,-22.11 16.58,-55.26 0,-77.37l0 0.01zm154.74 -513.94c16.58,-27.63 22.11,-55.26 5.53,-55.26 -16.58,0 -44.21,27.63 -60.79,55.26 -16.58,33.16 -22.11,55.26 -5.53,55.26 16.58,0 44.21,-22.11 60.79,-55.26zm359.21 -447.64c0,-77.37 -93.95,-55.26 -127.11,27.63 -22.11,55.26 -5.53,71.84 49.74,49.74 38.68,-16.58 77.37,-49.74 77.37,-77.37zm-331.58 5.53c0,-27.63 -22.11,-55.26 -55.26,-55.26 -27.63,0 -55.26,27.63 -55.26,55.26 0,33.16 27.63,55.26 55.26,55.26 33.16,0 55.26,-22.11 55.26,-55.26z"/>
   <path class="fil1" d="M10555.26 15789.47c0,-27.63 27.63,-55.26 55.26,-55.26 33.16,0 55.26,-22.11 55.26,-55.26 0,-27.63 -38.68,-55.26 -82.89,-55.26 -44.21,0 -82.89,27.63 -82.89,55.26 0,33.16 -49.74,55.26 -110.53,55.26 -60.79,0 -110.53,-22.11 -110.53,-55.26 0,-27.63 -27.63,-55.26 -60.79,-55.26 -99.47,0 -326.05,-292.89 -326.05,-425.53 0,-66.32 -27.63,-127.11 -60.79,-138.16 -49.74,-16.58 -49.74,-55.26 5.53,-149.21 49.74,-99.47 49.74,-138.16 0,-171.32 -55.26,-33.16 -71.84,-873.16 -49.74,-2160.79 0,-77.37 60.79,-88.42 342.63,-77.37l342.63 11.05 16.58 1099.74c5.53,607.89 22.11,1149.47 38.68,1215.79 27.63,138.16 187.89,320.53 303.95,348.16 160.26,38.68 469.74,5.53 486.32,-49.74 11.05,-27.63 49.74,-55.26 88.42,-55.26 171.32,0 221.05,-298.42 243.16,-1420.26l22.11 -1121.84 320.53 0 315 0 11.05 1105.26c11.05,1083.16 11.05,1105.26 -99.47,1105.26 -77.37,0 -116.05,33.16 -116.05,110.53 0,60.79 0,127.11 -5.53,149.21 -11.05,99.47 105,60.79 160.26,-49.74 55.26,-121.58 60.79,-121.58 60.79,38.68 5.53,105 -33.16,198.95 -99.47,248.68 -60.79,38.68 -99.47,93.95 -88.42,116.05 33.16,49.74 -165.79,270.79 -243.16,270.79 -33.16,0 -60.79,27.63 -60.79,55.26 0,33.16 -99.47,55.26 -221.05,55.26 -121.58,0 -221.05,27.63 -221.05,55.26 0,33.16 -110.53,55.26 -248.68,55.26 -198.95,0 -248.68,-16.58 -248.68,-93.95 -5.53,-93.95 -5.53,-93.95 -77.37,0 -77.37,99.47 -254.21,127.11 -254.21,38.68l-0.02 0.03zm1188.16 -221.05c16.58,-27.63 22.11,-55.26 5.53,-55.26 -16.58,0 -44.21,27.63 -60.79,55.26 -16.58,33.16 -22.11,55.26 -5.53,55.26 16.58,0 44.21,-22.11 60.79,-55.26zm-1309.74 -160.26c16.58,-44.21 -5.53,-66.32 -49.74,-49.74 -38.68,11.05 -82.89,55.26 -93.95,93.95 -16.58,44.21 5.53,66.32 49.74,49.74 38.68,-11.05 82.89,-55.26 93.95,-93.95zm-210 -33.16c0,-44.21 -38.68,-82.89 -82.89,-82.89 -88.42,0 -110.53,66.32 -44.21,127.11 60.79,66.32 127.11,44.21 127.11,-44.21l-0.01 -0.01zm1315.27 -82.89c-5.53,-88.42 -16.58,-165.79 -22.11,-165.79 -165.79,0 -259.74,237.63 -116.05,292.89 132.63,55.26 149.21,38.68 138.16,-127.11l0 0.01zm-1552.9 -93.95c-22.11,-16.58 -38.68,0 -38.68,38.68 0,38.68 16.58,55.26 38.68,38.68 16.58,-22.11 16.58,-55.26 0,-77.37l0 0.01zm386.84 -276.32c-49.74,-49.74 -105,-77.37 -127.11,-60.79 -55.26,55.26 33.16,154.74 132.63,154.74 82.89,0 82.89,-5.53 -5.53,-93.95l0.01 0zm1602.64 -165.79c-22.11,-16.58 -55.26,-16.58 -77.37,0 -16.58,22.11 0,38.68 38.68,38.68 38.68,0 55.26,-16.58 38.68,-38.68l0.01 0zm127.1 -2061.31c0,-27.63 -38.68,-55.26 -82.89,-55.26 -44.21,0 -82.89,27.63 -82.89,55.26 0,33.16 38.68,55.26 82.89,55.26 44.21,0 82.89,-22.11 82.89,-55.26zm-1657.89 -77.37c0,-16.58 -27.63,-44.21 -66.32,-66.32 -38.68,-22.11 -44.21,-16.58 -22.11,22.11 38.68,66.32 88.42,88.42 88.42,44.21l0.01 0z"/>
   <path class="fil1" d="M13539.47 15789.47c0,-27.63 -71.84,-55.26 -165.79,-55.26 -88.42,0 -165.79,-22.11 -165.79,-55.26 0,-27.63 -38.68,-55.26 -82.89,-55.26 -44.21,0 -82.89,-22.11 -82.89,-49.74 0,-27.63 -38.68,-93.95 -88.42,-138.16 -77.37,-82.89 -77.37,-93.95 0,-176.84 49.74,-44.21 88.42,-105 88.42,-132.63 0,-27.63 38.68,-88.42 88.42,-138.16 82.89,-77.37 99.47,-77.37 221.05,0 71.84,44.21 165.79,82.89 215.53,82.89 44.21,0 82.89,27.63 82.89,55.26 0,33.16 165.79,55.26 381.32,55.26 381.32,0 458.68,-44.21 442.11,-243.16 0,-27.63 27.63,-66.32 66.32,-88.42 49.74,-33.16 44.21,-66.32 -22.11,-138.16 -55.26,-49.74 -93.95,-116.05 -93.95,-143.68 0,-27.63 -38.68,-49.74 -82.89,-49.74 -49.74,0 -82.89,-49.74 -88.42,-121.58 0,-105 -11.05,-110.53 -38.68,-33.16 -38.68,88.42 -55.26,88.42 -198.95,16.58 -82.89,-44.21 -193.42,-82.89 -232.11,-82.89 -44.21,0 -77.37,-22.11 -77.37,-44.21 0,-27.63 -60.79,-82.89 -138.16,-121.58 -71.84,-38.68 -121.58,-93.95 -105,-121.58 16.58,-22.11 0,-44.21 -33.16,-44.21 -110.53,0 -221.05,-154.74 -221.05,-315 0,-121.58 -11.05,-138.16 -55.26,-71.84 -38.68,60.79 -55.26,22.11 -55.26,-149.21 0,-132.63 27.63,-237.63 60.79,-237.63 27.63,0 38.68,-22.11 22.11,-55.26 -16.58,-27.63 -5.53,-55.26 27.63,-55.26 33.16,0 44.21,-27.63 22.11,-60.79 -16.58,-33.16 38.68,-132.63 121.58,-221.05 138.16,-149.21 165.79,-154.74 221.05,-77.37 49.74,66.32 77.37,71.84 110.53,22.11 22.11,-38.68 11.05,-82.89 -22.11,-93.95 -105,-33.16 -77.37,-121.58 38.68,-121.58 60.79,0 127.11,-22.11 143.68,-55.26 16.58,-27.63 193.42,-55.26 386.84,-55.26 193.42,0 370.26,27.63 386.84,55.26 22.11,33.16 -27.63,55.26 -105,55.26 -77.37,0 -143.68,27.63 -143.68,60.79 0,38.68 38.68,44.21 99.47,22.11 198.95,-77.37 453.16,-99.47 453.16,-33.16 0,33.16 49.74,60.79 105,60.79 138.16,0 210,110.53 77.37,116.05 -55.26,5.53 -121.58,5.53 -154.74,0 -27.63,-5.53 -11.05,27.63 44.21,71.84 82.89,66.32 88.42,99.47 33.16,221.05 -71.84,160.26 -160.26,193.42 -160.26,60.79 0,-88.42 -82.89,-116.05 -127.11,-38.68 -16.58,22.11 -187.89,33.16 -386.84,22.11 -315,-16.58 -364.74,-33.16 -392.37,-138.16 -27.63,-99.47 -44.21,-105 -88.42,-38.68 -27.63,49.74 -27.63,105 0,132.63 49.74,49.74 11.05,204.47 -66.32,259.74 -60.79,38.68 66.32,326.05 143.68,326.05 33.16,0 121.58,49.74 198.95,110.53 77.37,60.79 193.42,110.53 265.26,110.53 66.32,0 121.58,27.63 121.58,55.26 0,33.16 44.21,55.26 99.47,55.26 55.26,0 132.63,49.74 176.84,110.53 44.21,60.79 99.47,110.53 127.11,110.53 71.84,0 204.47,149.21 165.79,187.89 -22.11,16.58 -11.05,33.16 22.11,33.16 165.79,0 237.63,558.16 99.47,751.58 -44.21,66.32 -66.32,132.63 -44.21,149.21 38.68,44.21 -121.58,204.47 -204.47,204.47 -33.16,0 -49.74,22.11 -33.16,44.21 16.58,27.63 -38.68,82.89 -121.58,121.58 -82.89,38.68 -193.42,88.42 -243.16,116.05 -138.16,66.32 -1038.95,60.79 -1038.95,-5.53l0 -0.01zm55.27 -442.1c0,-27.63 -38.68,-55.26 -82.89,-55.26 -44.21,0 -82.89,27.63 -82.89,55.26 0,33.16 38.68,55.26 82.89,55.26 44.21,0 82.89,-22.11 82.89,-55.26zm1492.1 -110.53c0,-27.63 -22.11,-55.26 -55.26,-55.26 -27.63,0 -55.26,27.63 -55.26,55.26 0,33.16 27.63,55.26 55.26,55.26 33.16,0 55.26,-22.11 55.26,-55.26zm-386.84 -110.52c0,-27.63 -11.05,-55.26 -22.11,-55.26 -16.58,0 -44.21,27.63 -60.79,55.26 -16.58,33.16 -5.53,55.26 22.11,55.26 33.16,0 60.79,-22.11 60.79,-55.26zm93.95 -259.74c-22.11,-16.58 -38.68,0 -38.68,38.68 0,38.68 16.58,55.26 38.68,38.68 16.58,-22.11 16.58,-55.26 0,-77.37l0 0.01zm403.42 -71.84c0,-27.63 -11.05,-55.26 -22.11,-55.26 -16.58,0 -44.21,27.63 -60.79,55.26 -16.58,33.16 -5.53,55.26 22.11,55.26 33.16,0 60.79,-22.11 60.79,-55.26zm-348.16 -480.79c-22.11,-16.58 -38.68,0 -38.68,38.68 0,38.68 16.58,55.26 38.68,38.68 16.58,-22.11 16.58,-55.26 0,-77.37l0 0.01zm-442.1 -55.27c-22.11,-16.58 -55.26,-16.58 -77.37,0 -16.58,22.11 0,38.68 38.68,38.68 38.68,0 55.26,-16.58 38.68,-38.68l0.01 0zm-93.95 -215.52c0,-16.58 -38.68,-66.32 -82.89,-116.05 -110.53,-105 -176.84,-55.26 -77.37,60.79 77.37,82.89 160.26,116.05 160.26,55.26zm-624.48 -834.48c-22.11,-16.58 -38.68,0 -38.68,38.68 0,38.68 16.58,55.26 38.68,38.68 16.58,-22.11 16.58,-55.26 0,-77.37l0 0.01zm-149.21 -292.89c0,-27.63 -22.11,-55.26 -55.26,-55.26 -27.63,0 -55.26,27.63 -55.26,55.26 0,33.16 27.63,55.26 55.26,55.26 33.16,0 55.26,-22.11 55.26,-55.26zm1215.79 0c0,-27.63 -11.05,-55.26 -22.11,-55.26 -16.58,0 -44.21,27.63 -60.79,55.26 -16.58,33.16 -5.53,55.26 22.11,55.26 33.16,0 60.79,-22.11 60.79,-55.26zm-569.21 -149.21c-22.11,-16.58 -38.68,0 -38.68,38.68 0,38.68 16.58,55.26 38.68,38.68 16.58,-22.11 16.58,-55.26 0,-77.37l0 0.01z"/>
   <path class="fil1" d="M16374.47 15750.79c-38.68,-11.05 -71.84,-60.79 -71.84,-105 0,-44.21 -22.11,-77.37 -55.26,-77.37 -27.63,0 -38.68,38.68 -22.11,82.89 27.63,66.32 -16.58,82.89 -232.11,82.89l-270.79 0 16.58 -497.37c11.05,-298.42 44.21,-497.37 77.37,-497.37 38.68,0 38.68,-22.11 0,-66.32 -71.84,-88.42 -88.42,-381.32 -77.37,-1353.95l11.05 -790.26 337.11 0 331.58 0 -16.58 663.16 -16.58 663.16 624.47 0 618.95 0 0 -657.63c0,-735 0,-735 458.68,-679.74l204.47 22.11 0 1591.58c0,1834.74 49.74,1696.58 -591.32,1613.68 -49.74,-11.05 -71.84,-198.95 -82.89,-657.63l-16.58 -652.11 -591.32 0c-458.68,0 -596.84,16.58 -607.89,77.37 -11.05,38.68 -5.53,342.63 11.05,674.21 16.58,331.58 27.63,602.37 27.63,596.84 0,0 -33.16,-16.58 -66.32,-33.16l0.02 0.02zm1475.53 -1287.63c0,-27.63 -11.05,-55.26 -22.11,-55.26 -16.58,0 -44.21,27.63 -60.79,55.26 -16.58,33.16 -5.53,55.26 22.11,55.26 33.16,0 60.79,-22.11 60.79,-55.26zm-127.11 -315c-22.11,-16.58 -55.26,-16.58 -77.37,0 -16.58,22.11 0,38.68 38.68,38.68 38.68,0 55.26,-16.58 38.68,-38.68l0.01 0zm-1751.84 -1398.16c0,-60.79 -11.05,-110.53 -22.11,-110.53 -11.05,0 -33.16,49.74 -49.74,110.53 -16.58,60.79 -5.53,110.53 22.11,110.53 27.63,0 49.74,-49.74 49.74,-110.53zm315 71.84c-22.11,-16.58 -55.26,-16.58 -77.37,0 -16.58,22.11 0,38.68 38.68,38.68 38.68,0 55.26,-16.58 38.68,-38.68l0.01 0z"/>
   <path class="fil1" d="M18999.47 15750.79l-154.74 -22.11 0 -1602.63 0 -1597.11 303.95 0c281.84,0 397.89,60.79 237.63,127.11 -55.26,22.11 -55.26,44.21 11.05,88.42 44.21,27.63 99.47,38.68 121.58,27.63 22.11,-16.58 44.21,646.58 44.21,1464.47 0,1387.11 -5.53,1497.63 -93.95,1503.16 -55.26,0 -149.21,11.05 -210,16.58 -60.79,5.53 -176.84,5.53 -259.74,-5.53l0.01 0.01zm176.85 -182.37c0,-27.63 -49.74,-55.26 -110.53,-55.26 -60.79,0 -110.53,27.63 -110.53,55.26 0,33.16 49.74,55.26 110.53,55.26 60.79,0 110.53,-22.11 110.53,-55.26zm331.57 0c0,-27.63 -38.68,-38.68 -82.89,-22.11 -44.21,22.11 -82.89,44.21 -82.89,55.26 0,11.05 38.68,22.11 82.89,22.11 44.21,0 82.89,-22.11 82.89,-55.26zm-458.68 -2746.58c-22.11,-16.58 -55.26,-16.58 -77.37,0 -16.58,22.11 0,38.68 38.68,38.68 38.68,0 55.26,-16.58 38.68,-38.68l0.01 0z"/>
   <path class="fil1" d="M2718.95 14982.63c-657.63,-453.16 -967.11,-889.74 -1033.42,-1464.47l-33.16 -298.42 121.58 221.05c243.16,442.11 1132.89,1132.89 1458.95,1132.89 138.16,0 801.32,-596.84 801.32,-723.95 0,-154.74 -281.84,-270.79 -817.89,-331.58 -265.26,-33.16 -585.79,-71.84 -712.89,-82.89 -127.11,-16.58 -309.47,-82.89 -414.47,-149.21 -342.63,-232.11 -768.16,-1132.89 -668.68,-1409.21 49.74,-132.63 580.26,-558.16 873.16,-696.32 110.53,-55.26 348.16,-121.58 530.53,-160.26 309.47,-55.26 331.58,-71.84 309.47,-187.89 -27.63,-154.74 49.74,-160.26 320.53,-33.16 243.16,116.05 303.95,60.79 149.21,-149.21 -160.26,-215.53 -154.74,-237.63 38.68,-138.16 88.42,44.21 243.16,193.42 342.63,331.58 187.89,265.26 270.79,309.47 270.79,154.74 0,-55.26 55.26,16.58 127.11,149.21 105,210 143.68,248.68 276.32,237.63 143.68,-11.05 154.74,0 138.16,187.89 -11.05,138.16 11.05,215.53 77.37,254.21 116.05,77.37 198.95,5.53 110.53,-82.89 -127.11,-127.11 -66.32,-154.74 71.84,-33.16 132.63,116.05 171.32,276.32 105,453.16 -38.68,99.47 -370.26,121.58 -480.79,33.16 -265.26,-221.05 -508.42,-386.84 -569.21,-386.84 -127.11,0 -22.11,154.74 176.84,276.32 110.53,60.79 176.84,138.16 160.26,165.79 -49.74,82.89 77.37,221.05 198.95,221.05 121.58,0 132.63,60.79 38.68,154.74 -99.47,99.47 -436.58,77.37 -613.42,-38.68l-160.26 -105 121.58 -82.89c138.16,-93.95 121.58,-105 -232.11,-204.47 -254.21,-66.32 -486.32,-226.58 -486.32,-337.11 0,-33.16 38.68,-33.16 105,5.53 116.05,55.26 298.42,16.58 254.21,-55.26 -49.74,-82.89 -408.95,-110.53 -674.21,-55.26 -392.37,88.42 -679.74,292.89 -679.74,491.84 0,88.42 33.16,182.37 71.84,210 33.16,33.16 375.79,99.47 757.11,154.74 762.63,99.47 1530.79,276.32 1652.37,375.79 55.26,44.21 66.32,154.74 49.74,397.89 -38.68,420 -243.16,840 -585.79,1182.63 -287.37,287.37 -900.79,723.95 -1016.84,723.95 -44.21,0 -281.84,-138.16 -530.53,-309.47l-0.03 -0.03zm1812.63 -3271.58c0,-71.84 -127.11,-176.84 -215.53,-176.84 -60.79,0 -55.26,22.11 22.11,110.53 105,116.05 193.42,143.68 193.42,66.32l0 -0.01z"/>
   <path class="fil1" d="M19507.89 12584.21c0,-38.68 16.58,-55.26 38.68,-38.68 16.58,22.11 16.58,55.26 0,77.37 -22.11,16.58 -38.68,0 -38.68,-38.68l0 -0.01z"/>
   <path class="fil1" d="M14368.42 11810.53c0,-33.16 -149.21,-49.74 -342.63,-49.74 -215.53,5.53 -353.68,-16.58 -364.74,-55.26 -11.05,-33.16 -55.26,-60.79 -99.47,-60.79 -82.89,0 -44.21,-160.26 55.26,-237.63 33.16,-22.11 -11.05,-27.63 -99.47,-5.53 -171.32,38.68 -254.21,-33.16 -254.21,-243.16 0,-71.84 -22.11,-116.05 -49.74,-99.47 -71.84,49.74 -121.58,-303.95 -66.32,-491.84 77.37,-265.26 182.37,-469.74 243.16,-469.74 33.16,0 38.68,-16.58 22.11,-33.16 -44.21,-44.21 237.63,-298.42 331.58,-298.42 33.16,0 71.84,16.58 88.42,44.21 11.05,22.11 11.05,11.05 5.53,-27.63 -22.11,-99.47 309.47,-154.74 375.79,-66.32 38.68,60.79 60.79,60.79 82.89,11.05 33.16,-82.89 182.37,-93.95 182.37,-16.58 0,33.16 66.32,55.26 149.21,55.26 77.37,0 127.11,16.58 110.53,33.16 -22.11,22.11 16.58,88.42 82.89,143.68 93.95,82.89 105,116.05 49.74,149.21 -88.42,55.26 -453.16,16.58 -525,-55.26 -77.37,-71.84 -237.63,-60.79 -370.26,22.11 -93.95,55.26 -127.11,55.26 -143.68,0 -27.63,-82.89 -182.37,-99.47 -182.37,-22.11 0,27.63 55.26,60.79 116.05,77.37 110.53,27.63 110.53,38.68 33.16,116.05 -49.74,49.74 -110.53,88.42 -138.16,88.42 -71.84,0 -38.68,674.21 38.68,817.89 38.68,66.32 49.74,149.21 33.16,176.84 -16.58,27.63 0,38.68 44.21,22.11 44.21,-16.58 93.95,11.05 110.53,55.26 16.58,44.21 77.37,66.32 138.16,55.26 66.32,-22.11 121.58,11.05 165.79,99.47 60.79,121.58 60.79,121.58 93.95,16.58 16.58,-66.32 99.47,-143.68 182.37,-182.37 171.32,-71.84 298.42,-342.63 226.58,-458.68 -33.16,-55.26 -49.74,-60.79 -49.74,-5.53 0,38.68 -82.89,66.32 -221.05,66.32 -210,0 -221.05,-11.05 -221.05,-165.79l0 -165.79 469.74 0 469.74 0 -27.63 364.74c-27.63,287.37 -60.79,392.37 -171.32,502.89 -71.84,71.84 -132.63,110.53 -132.63,88.42 0,-22.11 -33.16,-5.53 -71.84,38.68 -88.42,110.53 -370.26,237.63 -370.26,165.79l-0.03 0.03zm397.9 -618.95c-49.74,-49.74 -66.32,-38.68 -66.32,66.32 0,105 16.58,116.05 66.32,66.32 49.74,-49.74 49.74,-82.89 0,-132.63l0 -0.01zm-1409.21 27.63c-22.11,-16.58 -38.68,0 -38.68,38.68 0,38.68 16.58,55.26 38.68,38.68 16.58,-22.11 16.58,-55.26 0,-77.37l0 0.01zm182.36 -71.84c0,-27.63 -22.11,-55.26 -55.26,-55.26 -27.63,0 -55.26,27.63 -55.26,55.26 0,33.16 27.63,55.26 55.26,55.26 33.16,0 55.26,-22.11 55.26,-55.26zm1436.85 -221.05c0,-27.63 -38.68,-55.26 -82.89,-55.26 -44.21,0 -82.89,27.63 -82.89,55.26 0,33.16 38.68,55.26 82.89,55.26 44.21,0 82.89,-22.11 82.89,-55.26zm-331.58 -1000.27c0,-27.63 -22.11,-49.74 -55.26,-49.74 -27.63,0 -55.26,38.68 -55.26,88.42 0,44.21 27.63,66.32 55.26,49.74 33.16,-16.58 55.26,-55.26 55.26,-88.42zm-221.06 5.53c0,-27.63 -22.11,-55.26 -55.26,-55.26 -27.63,0 -55.26,27.63 -55.26,55.26 0,33.16 27.63,55.26 55.26,55.26 33.16,0 55.26,-22.11 55.26,-55.26z"/>
   <path class="fil1" d="M16081.58 11810.53c0,-27.63 -49.74,-55.26 -110.53,-55.26 -60.79,0 -110.53,-22.11 -110.53,-55.26 0,-27.63 -38.68,-55.26 -82.89,-55.26 -49.74,0 -105,-44.21 -121.58,-93.95 -22.11,-55.26 -82.89,-143.68 -143.68,-193.42 -55.26,-49.74 -88.42,-116.05 -71.84,-143.68 11.05,-22.11 -5.53,-143.68 -49.74,-265.26 -88.42,-243.16 -105,-431.05 -38.68,-386.84 22.11,11.05 77.37,5.53 121.58,-27.63 55.26,-33.16 60.79,-49.74 16.58,-49.74 -38.68,0 -71.84,-60.79 -71.84,-138.16 0,-77.37 22.11,-138.16 49.74,-138.16 33.16,0 99.47,-71.84 154.74,-165.79 49.74,-88.42 143.68,-165.79 198.95,-165.79 55.26,0 82.89,-22.11 66.32,-55.26 -16.58,-27.63 16.58,-55.26 77.37,-55.26 66.32,0 116.05,-22.11 116.05,-55.26 0,-27.63 38.68,-55.26 82.89,-55.26 44.21,0 82.89,27.63 82.89,55.26 0,33.16 -38.68,55.26 -82.89,55.26 -44.21,0 -82.89,27.63 -82.89,55.26 0,105 210,55.26 237.63,-55.26 27.63,-116.05 281.84,-160.26 342.63,-55.26 16.58,33.16 82.89,55.26 138.16,55.26 121.58,0 337.11,165.79 298.42,226.58 -11.05,22.11 22.11,55.26 77.37,71.84 55.26,22.11 138.16,99.47 182.37,176.84 99.47,187.89 99.47,933.95 0,1027.89 -60.79,60.79 -66.32,49.74 -33.16,-49.74 27.63,-99.47 11.05,-127.11 -55.26,-127.11 -60.79,0 -82.89,27.63 -60.79,82.89 16.58,44.21 49.74,121.58 66.32,165.79 16.58,44.21 11.05,82.89 -22.11,82.89 -33.16,0 -66.32,-33.16 -82.89,-66.32 -11.05,-38.68 -44.21,-49.74 -71.84,-27.63 -27.63,22.11 -11.05,66.32 33.16,93.95 66.32,38.68 49.74,77.37 -82.89,187.89 -93.95,77.37 -210,143.68 -259.74,143.68 -55.26,0 -99.47,27.63 -99.47,55.26 0,33.16 -138.16,55.26 -303.95,55.26 -165.79,0 -303.95,-22.11 -303.95,-55.26l-0.03 0.02zm591.31 -138.16c44.21,-49.74 66.32,-105 44.21,-127.11 -22.11,-22.11 -55.26,-5.53 -66.32,33.16 -16.58,33.16 -71.84,66.32 -132.63,66.32 -55.26,0 -105,27.63 -105,55.26 0,82.89 165.79,66.32 259.74,-27.63zm77.37 -320.53c160.26,-127.11 221.05,-320.53 210,-663.16 -11.05,-287.37 -33.16,-364.74 -154.74,-475.26 -99.47,-88.42 -110.53,-116.05 -44.21,-99.47 60.79,22.11 93.95,5.53 93.95,-44.21 0,-93.95 -303.95,-116.05 -359.21,-27.63 -16.58,33.16 -99.47,38.68 -176.84,22.11 -265.26,-66.32 -519.47,392.37 -502.89,906.32 11.05,149.21 38.68,232.11 82.89,232.11 38.68,0 71.84,44.21 71.84,99.47 0,88.42 49.74,105 348.16,110.53 198.95,5.53 375.79,-16.58 431.05,-60.79l0 -0.02zm-1110.79 -425.52c0,-27.63 -22.11,-55.26 -55.26,-55.26 -27.63,0 -55.26,27.63 -55.26,55.26 0,33.16 27.63,55.26 55.26,55.26 33.16,0 55.26,-22.11 55.26,-55.26zm221.06 -663.16c0,-27.63 -27.63,-55.26 -60.79,-55.26 -27.63,0 -38.68,27.63 -22.11,55.26 16.58,33.16 44.21,55.26 60.79,55.26 11.05,0 22.11,-22.11 22.11,-55.26zm110.52 -221.05c0,-27.63 -49.74,-55.26 -110.53,-55.26 -60.79,0 -110.53,27.63 -110.53,55.26 0,33.16 49.74,55.26 110.53,55.26 60.79,0 110.53,-22.11 110.53,-55.26zm480.79 -38.69c-22.11,-16.58 -55.26,-16.58 -77.37,0 -16.58,22.11 0,38.68 38.68,38.68 38.68,0 55.26,-16.58 38.68,-38.68l0.01 0z"/>
   <path class="fil1" d="M6946.58 11766.32l-149.21 -16.58 11.05 -1005.79 16.58 -1005.79 320.53 -16.58c248.68,-11.05 315,0 315,66.32 0,66.32 33.16,66.32 204.47,16.58 154.74,-49.74 204.47,-49.74 226.58,5.53 11.05,38.68 49.74,66.32 88.42,66.32 33.16,0 99.47,55.26 143.68,116.05 44.21,66.32 116.05,149.21 154.74,193.42 33.16,38.68 66.32,105 66.32,149.21 0,49.74 27.63,93.95 66.32,105 49.74,16.58 49.74,121.58 -5.53,431.05 -55.26,359.21 -88.42,431.05 -281.84,618.95 -116.05,116.05 -237.63,210 -270.79,210 -99.47,0 -66.32,-210 38.68,-237.63 88.42,-22.11 88.42,-27.63 0,-33.16 -55.26,0 -138.16,60.79 -193.42,149.21 -55.26,82.89 -121.58,165.79 -143.68,182.37 -55.26,38.68 -359.21,44.21 -607.89,5.53l-0.01 -0.01zm795.79 -436.58c342.63,-292.89 359.21,-773.68 38.68,-1072.11 -127.11,-116.05 -127.11,-160.26 11.05,-160.26 60.79,0 110.53,-22.11 110.53,-55.26 0,-27.63 -71.84,-55.26 -165.79,-55.26 -88.42,0 -165.79,27.63 -165.79,55.26 0,33.16 -49.74,55.26 -110.53,55.26 -60.79,0 -110.53,-33.16 -110.53,-66.32 0,-49.74 -22.11,-44.21 -55.26,11.05 -27.63,44.21 -55.26,375.79 -55.26,735l0 646.58 193.42 0c105,0 243.16,-44.21 309.47,-93.95l0.01 0.01zm491.84 -182.37c0,-27.63 -38.68,-55.26 -82.89,-55.26 -44.21,0 -82.89,27.63 -82.89,55.26 0,33.16 38.68,55.26 82.89,55.26 44.21,0 82.89,-22.11 82.89,-55.26z"/>
   <path class="fil1" d="M8825.53 11771.84c-16.58,-27.63 -27.63,-497.37 -33.16,-1044.47l-5.53 -1000.26 375.79 -33.16c204.47,-16.58 392.37,-5.53 420,22.11 33.16,27.63 121.58,49.74 204.47,49.74 110.53,0 193.42,55.26 292.89,182.37 215.53,281.84 182.37,591.32 -55.26,591.32 -71.84,0 -132.63,27.63 -132.63,55.26 0,33.16 49.74,55.26 110.53,55.26 99.47,0 105,11.05 44.21,110.53 -71.84,116.05 -265.26,154.74 -265.26,55.26 0,-88.42 -93.95,-66.32 -132.63,33.16 -38.68,93.95 93.95,259.74 160.26,198.95 16.58,-22.11 22.11,27.63 0,116.05 -38.68,138.16 -27.63,149.21 132.63,149.21 93.95,0 171.32,27.63 171.32,55.26 0,33.16 -22.11,55.26 -55.26,55.26 -27.63,0 -55.26,27.63 -55.26,60.79 0,33.16 49.74,49.74 110.53,33.16 60.79,-16.58 110.53,-5.53 110.53,16.58 0,27.63 16.58,82.89 33.16,132.63 27.63,71.84 -5.53,88.42 -187.89,88.42 -243.16,0 -337.11,-116.05 -221.05,-270.79 66.32,-77.37 60.79,-77.37 -22.11,-16.58 -110.53,88.42 -187.89,33.16 -315,-204.47 -60.79,-105 -60.79,-138.16 0,-182.37 60.79,-38.68 60.79,-60.79 11.05,-82.89 -38.68,-11.05 -71.84,-71.84 -71.84,-132.63 0,-55.26 -22.11,-105 -55.26,-105 -77.37,0 -71.84,127.11 11.05,210 33.16,33.16 49.74,82.89 27.63,99.47 -22.11,22.11 -82.89,-11.05 -138.16,-77.37 -93.95,-110.53 -99.47,-99.47 -93.95,309.47 5.53,243.16 -22.11,442.11 -49.74,464.21 -77.37,55.26 -298.42,55.26 -326.05,5.53l-0.01 -0.01zm182.36 -292.89c0,-27.63 -38.68,-55.26 -82.89,-55.26 -44.21,0 -82.89,27.63 -82.89,55.26 0,33.16 38.68,55.26 82.89,55.26 44.21,0 82.89,-22.11 82.89,-55.26zm0 -353.69c0,-44.21 -22.11,-99.47 -55.26,-116.05 -27.63,-16.58 -55.26,-22.11 -55.26,-5.53 0,11.05 -16.58,60.79 -33.16,110.53 -22.11,60.79 -5.53,88.42 55.26,88.42 49.74,0 88.42,-33.16 88.42,-77.37zm729.48 -558.15c82.89,-110.53 44.21,-320.53 -77.37,-425.53 -66.32,-55.26 -127.11,-160.26 -127.11,-226.58 0,-82.89 -38.68,-127.11 -127.11,-138.16 -110.53,-16.58 -127.11,0 -93.95,93.95 22.11,66.32 11.05,116.05 -22.11,116.05 -38.68,0 -60.79,132.63 -60.79,337.11l0 337.11 237.63 -16.58c127.11,-11.05 248.68,-44.21 270.79,-77.37l0.02 0zm375.79 -193.43c0,-27.63 -22.11,-55.26 -55.26,-55.26 -27.63,0 -55.26,27.63 -55.26,55.26 0,33.16 27.63,55.26 55.26,55.26 33.16,0 55.26,-22.11 55.26,-55.26zm-1061.05 -210c11.05,-38.68 -16.58,-66.32 -66.32,-66.32 -49.74,0 -88.42,38.68 -88.42,88.42 0,93.95 121.58,77.37 154.74,-22.11l0 0.01zm950.52 -127.1c0,-27.63 -49.74,-49.74 -110.53,-49.74 -60.79,0 -110.53,33.16 -110.53,77.37 0,49.74 38.68,66.32 110.53,49.74 60.79,-16.58 110.53,-49.74 110.53,-77.37zm-972.63 -182.37c-33.16,-82.89 -132.63,-127.11 -132.63,-60.79 0,44.21 132.63,187.89 154.74,165.79 5.53,-5.53 0,-55.26 -22.11,-105z"/>
   <path class="fil1" d="M10770.79 11766.32c38.68,-27.63 60.79,-77.37 38.68,-110.53 -55.26,-88.42 88.42,-353.68 171.32,-320.53 60.79,27.63 66.32,-11.05 38.68,-160.26 -22.11,-127.11 -11.05,-193.42 27.63,-193.42 33.16,0 60.79,-33.16 60.79,-71.84 0,-38.68 49.74,-176.84 110.53,-303.95 60.79,-121.58 110.53,-248.68 110.53,-276.32 0,-27.63 66.32,-193.42 143.68,-364.74 116.05,-254.21 165.79,-309.47 276.32,-309.47 143.68,0 353.68,270.79 353.68,458.68 0,49.74 22.11,93.95 44.21,93.95 22.11,0 77.37,116.05 116.05,259.74 44.21,138.16 116.05,326.05 154.74,414.47 44.21,82.89 60.79,182.37 38.68,215.53 -16.58,33.16 0,82.89 38.68,110.53 66.32,44.21 66.32,60.79 -5.53,99.47 -44.21,33.16 -60.79,77.37 -33.16,99.47 27.63,22.11 60.79,11.05 71.84,-22.11 38.68,-110.53 127.11,-82.89 127.11,33.16 0,60.79 33.16,143.68 77.37,187.89 110.53,110.53 38.68,176.84 -198.95,176.84 -226.58,0 -326.05,-60.79 -187.89,-116.05 121.58,-44.21 110.53,-149.21 -11.05,-121.58 -82.89,22.11 -99.47,5.53 -77.37,-99.47 16.58,-99.47 0,-132.63 -71.84,-132.63 -60.79,0 -82.89,-27.63 -60.79,-82.89 16.58,-44.21 11.05,-82.89 -16.58,-82.89 -22.11,0 -88.42,-160.26 -143.68,-359.21 -127.11,-447.63 -243.16,-475.26 -353.68,-93.95 -44.21,143.68 -93.95,270.79 -116.05,287.37 -16.58,16.58 -77.37,165.79 -127.11,331.58 -132.63,414.47 -143.68,431.05 -425.53,469.74 -165.79,27.63 -221.05,16.58 -171.32,-16.58l0.01 0zm762.63 -1155c-22.11,-16.58 -55.26,-16.58 -77.37,0 -16.58,22.11 0,38.68 38.68,38.68 38.68,0 55.26,-16.58 38.68,-38.68l0.01 0zm221.05 -469.74c-16.58,-38.68 -27.63,-11.05 -27.63,66.32 0,77.37 11.05,105 27.63,71.84 11.05,-38.68 11.05,-105 0,-138.16zm-93.94 -99.47c0,-27.63 -22.11,-55.26 -55.26,-55.26 -27.63,0 -55.26,27.63 -55.26,55.26 0,33.16 27.63,55.26 55.26,55.26 33.16,0 55.26,-22.11 55.26,-55.26zm82.89 -221.06c16.58,-27.63 5.53,-55.26 -22.11,-55.26 -33.16,0 -60.79,27.63 -60.79,55.26 0,33.16 11.05,55.26 22.11,55.26 16.58,0 44.21,-22.11 60.79,-55.26z"/>
   <path class="fil1" d="M17844.47 11771.84c-82.89,-16.58 -93.95,-138.16 -93.95,-945 0,-558.16 22.11,-950.53 55.26,-989.21 38.68,-49.74 38.68,-71.84 -5.53,-71.84 -33.16,0 -60.79,-22.11 -60.79,-55.26 0,-27.63 116.05,-55.26 254.21,-55.26 149.21,0 237.63,22.11 215.53,55.26 -16.58,33.16 -82.89,55.26 -143.68,55.26 -60.79,0 -93.95,27.63 -77.37,55.26 49.74,77.37 248.68,66.32 248.68,-11.05 0,-38.68 60.79,22.11 138.16,132.63 77.37,110.53 138.16,243.16 138.16,287.37 0,49.74 22.11,88.42 44.21,88.42 27.63,0 82.89,66.32 127.11,154.74 44.21,82.89 121.58,187.89 171.32,237.63 55.26,49.74 99.47,127.11 99.47,176.84 0,71.84 105,149.21 204.47,149.21 16.58,0 22.11,-232.11 16.58,-508.42 -22.11,-878.68 -22.11,-873.16 160.26,-873.16 138.16,0 165.79,27.63 193.42,187.89 38.68,198.95 0,364.74 -88.42,364.74 -33.16,0 -22.11,38.68 16.58,93.95 82.89,93.95 132.63,1143.95 71.84,1387.11 -38.68,138.16 -132.63,165.79 -132.63,38.68 0,-44.21 -38.68,-82.89 -82.89,-82.89 -99.47,0 -110.53,88.42 -11.05,132.63 33.16,16.58 5.53,16.58 -71.84,0 -77.37,-22.11 -138.16,-38.68 -138.16,-44.21 0,0 -82.89,-121.58 -182.37,-265.26 -93.95,-138.16 -176.84,-281.84 -176.84,-315 0,-33.16 -22.11,-60.79 -44.21,-60.79 -27.63,0 -77.37,-66.32 -116.05,-143.68 -55.26,-121.58 -49.74,-160.26 33.16,-226.58 93.95,-71.84 88.42,-71.84 -22.11,-22.11 -160.26,82.89 -160.26,82.89 -237.63,-105 -88.42,-215.53 -165.79,-210 -171.32,16.58 0,93.95 -5.53,403.42 -11.05,674.21 -11.05,453.16 -22.11,497.37 -121.58,508.42 -60.79,0 -149.21,-5.53 -198.95,-22.11zm210 -221.05c-22.11,-16.58 -38.68,0 -38.68,38.68 0,38.68 16.58,55.26 38.68,38.68 16.58,-22.11 16.58,-55.26 0,-77.37l0 0.01zm1121.85 -292.9c0,-27.63 -11.05,-55.26 -22.11,-55.26 -16.58,0 -44.21,27.63 -60.79,55.26 -16.58,33.16 -5.53,55.26 22.11,55.26 33.16,0 60.79,-22.11 60.79,-55.26zm-1050 -552.63c0,-27.63 -38.68,-55.26 -82.89,-55.26 -44.21,0 -82.89,27.63 -82.89,55.26 0,33.16 38.68,55.26 82.89,55.26 44.21,0 82.89,-22.11 82.89,-55.26zm1271.05 -696.31c0,-93.95 -121.58,-77.37 -154.74,22.11 -11.05,38.68 16.58,66.32 66.32,66.32 49.74,0 88.42,-38.68 88.42,-88.42l0 -0.01z"/>
   <path class="fil1" d="M19563.16 10373.68c0,-38.68 16.58,-55.26 38.68,-38.68 16.58,22.11 16.58,55.26 0,77.37 -22.11,16.58 -38.68,0 -38.68,-38.68l0 -0.01z"/>
   <path class="fil1" d="M14644.74 10268.68c0,-33.16 27.63,-71.84 55.26,-88.42 33.16,-16.58 55.26,5.53 55.26,49.74 0,49.74 -22.11,88.42 -55.26,88.42 -27.63,0 -55.26,-22.11 -55.26,-49.74z"/>
  </g>
 </g>
</svg>