<?xml version="1.0" encoding="UTF-8"?>
<!DOCTYPE svg PUBLIC "-//W3C//DTD SVG 1.1//EN" "http://www.w3.org/Graphics/SVG/1.1/DTD/svg11.dtd">
<!-- Creator: CorelDRAW 2020 (64 Bit) -->
<svg xmlns="http://www.w3.org/2000/svg" xml:space="preserve" width="210mm" height="297mm" version="1.1" style="shape-rendering:geometricPrecision; text-rendering:geometricPrecision; image-rendering:optimizeQuality; fill-rule:evenodd; clip-rule:evenodd"
viewBox="0 0 21000 29700"
 xmlns:xlink="http://www.w3.org/1999/xlink"
 xmlns:xodm="http://www.corel.com/coreldraw/odm/2003">
 <defs>
  <style type="text/css">
   <![CDATA[
    .fil0 {fill:#BD2525;fill-rule:nonzero}
   ]]>
  </style>
 </defs>
 <g id="Camada_x0020_1">
  <metadata id="CorelCorpID_0Corel-Layer"/>
  <g id="layer102">
   <path class="fil0" d="M6115.85 15326.25c-105.83,-34.4 -209.02,-156.1 -246.06,-293.69 -18.52,-68.79 -26.46,-468.31 -21.17,-1169.46 7.94,-1013.35 10.58,-1068.92 60.85,-1156.23 31.75,-50.27 95.25,-113.77 145.52,-145.52 84.67,-47.63 134.94,-52.92 661.46,-50.27 457.73,0 603.25,10.58 740.83,47.63 650.88,177.27 957.79,568.85 994.83,1272.65 42.33,754.06 -288.4,1246.19 -968.37,1441.98 -166.69,47.63 -283.1,58.21 -740.83,68.79 -312.21,5.29 -576.79,-2.65 -627.06,-15.88zm1076.86 -108.48c719.67,-89.96 1103.31,-470.96 1153.58,-1150.94 60.85,-793.75 -304.27,-1299.1 -1031.87,-1426.1 -322.79,-55.56 -1034.52,-55.56 -1174.75,2.65 -177.27,68.79 -177.27,60.85 -185.21,1240.9 -10.58,1431.4 -42.33,1359.96 616.48,1362.6 219.6,0 497.42,-13.23 621.77,-29.1l0 -0.01z"/>
   <path class="fil0" d="M6774.67 14913.5c-314.85,-216.96 -463.02,-425.98 -494.77,-701.15l-15.88 -142.88 58.21 105.83c116.42,211.67 542.4,542.4 698.5,542.4 66.15,0 383.65,-285.75 383.65,-346.6 0,-74.08 -134.94,-129.65 -391.58,-158.75 -127,-15.88 -280.46,-34.4 -341.31,-39.69 -60.85,-7.94 -148.17,-39.69 -198.44,-71.44 -164.04,-111.13 -367.77,-542.4 -320.15,-674.69 23.81,-63.5 277.81,-267.23 418.04,-333.38 52.92,-26.46 166.69,-58.21 254,-76.73 148.17,-26.46 158.75,-34.4 148.17,-89.96 -13.23,-71.44 37.04,-79.38 140.23,-21.17 140.23,79.38 171.98,37.04 63.5,-89.96 -37.04,-44.98 -60.85,-82.02 -50.27,-82.02 58.21,0 179.92,95.25 254,198.44 89.96,127 129.65,148.17 129.65,74.08 0,-26.46 26.46,7.94 60.85,71.44 50.27,100.54 68.79,119.06 132.29,113.77 68.79,-5.29 74.08,0 66.15,89.96 -5.29,66.15 5.29,103.19 37.04,121.71 55.56,37.04 95.25,2.65 52.92,-39.69 -60.85,-60.85 -31.75,-74.08 34.4,-15.88 63.5,55.56 82.02,132.29 50.27,216.96 -18.52,47.63 -177.27,58.21 -230.19,15.88 -108.48,-89.96 -240.77,-185.21 -259.29,-185.21 -58.21,0 -15.88,79.38 71.44,129.65 50.27,31.75 84.67,68.79 76.73,82.02 -23.81,39.69 37.04,105.83 95.25,105.83 58.21,0 63.5,29.1 18.52,74.08 -47.63,47.63 -209.02,37.04 -293.69,-18.52l-76.73 -50.27 58.21 -39.69c66.15,-44.98 58.21,-50.27 -111.13,-97.9 -121.71,-31.75 -232.83,-108.48 -232.83,-161.4 0,-15.88 18.52,-15.88 50.27,2.65 55.56,26.46 142.88,7.94 121.71,-26.46 -23.81,-39.69 -195.79,-52.92 -322.79,-26.46 -187.85,42.33 -325.44,140.23 -325.44,235.48 0,42.33 15.88,87.31 34.4,100.54 15.88,15.88 179.92,47.63 362.48,74.08 365.13,47.63 732.9,132.29 791.1,179.92 26.46,21.17 31.75,74.08 23.81,190.5 -18.52,201.08 -116.42,402.17 -280.46,566.21 -137.58,137.58 -431.27,346.6 -486.83,346.6 -21.17,0 -134.94,-66.15 -254,-148.17l-0.01 0.04zm867.83 -1568.98c0,-34.4 -76.73,-92.6 -97.9,-74.08 -18.52,21.17 39.69,97.9 74.08,97.9 13.23,0 23.81,-10.58 23.81,-23.81l0.01 -0.01z"/>
   <path class="fil0" d="M9052.73 15313.02c-140.23,-39.69 -325.44,-140.23 -325.44,-179.92 0,-18.52 119.06,-238.13 150.81,-280.46 2.65,-5.29 76.73,26.46 164.04,74.08 238.13,127 478.9,97.9 478.9,-60.85 0,-79.38 -84.67,-153.46 -288.4,-251.35 -272.52,-129.65 -373.06,-251.35 -373.06,-449.79 0,-195.79 105.83,-359.83 288.4,-444.5 124.35,-60.85 378.35,-52.92 566.21,18.52 171.98,66.15 179.92,89.96 68.79,275.17l-52.92 92.6 -111.13 -52.92c-148.17,-66.15 -293.69,-66.15 -362.48,2.65 -105.83,105.83 -60.85,158.75 254,314.85 113.77,55.56 248.71,145.52 298.98,198.44 79.38,82.02 92.6,116.42 103.19,248.71 15.88,222.25 -66.15,367.77 -269.87,473.6 -108.48,55.56 -423.33,68.79 -590.02,21.17z"/>
   <path class="fil0" d="M10645.52 15342.13c-13.23,-7.94 -71.44,-18.52 -127,-29.1 -111.13,-18.52 -261.94,-137.58 -330.73,-261.94 -39.69,-71.44 -44.98,-169.33 -44.98,-717.02l0 -635 171.98 0 171.98 0 13.23 571.5c13.23,576.79 21.17,619.13 119.06,690.56 15.88,10.58 79.38,21.17 145.52,21.17 66.15,0 132.29,-10.58 145.52,-21.17 97.9,-71.44 105.83,-113.77 119.06,-690.56l13.23 -571.5 116.42 -7.94c66.15,-5.29 145.52,-2.65 179.92,7.94l60.85 13.23 0 576.79c0,317.5 -13.23,619.13 -29.1,674.69 -31.75,113.77 -156.1,267.23 -259.29,322.79 -68.79,34.4 -412.75,74.08 -465.67,55.56z"/>
   <path class="fil0" d="M11989.6 15328.9c-124.35,-31.75 -378.35,-161.4 -378.35,-190.5 0,-21.17 111.13,-232.83 148.17,-285.75 5.29,-5.29 82.02,29.1 171.98,74.08 248.71,124.35 473.6,95.25 473.6,-63.5 0,-87.31 -52.92,-132.29 -293.69,-254 -264.58,-132.29 -367.77,-259.29 -367.77,-452.44 0,-145.52 26.46,-211.67 129.65,-320.15 100.54,-108.48 230.19,-156.1 423.33,-156.1 182.56,2.65 452.44,92.6 452.44,150.81 0,18.52 -26.46,87.31 -58.21,150.81 -34.4,60.85 -60.85,116.42 -63.5,121.71 -2.65,2.65 -58.21,-18.52 -127,-47.63 -161.4,-68.79 -291.04,-68.79 -359.83,0 -29.1,29.1 -52.92,63.5 -52.92,76.73 0,55.56 108.48,142.88 304.27,238.13 333.38,166.69 410.1,254 410.1,470.96 0,306.92 -179.92,473.6 -531.81,497.42 -108.48,5.29 -232.83,0 -280.46,-10.58z"/>
   <polygon class="fil0" points="12992.37,14513.98 13000.31,13699.06 13172.29,13699.06 13344.27,13699.06 13352.21,14024.5 13360.15,14347.29 13622.09,14347.29 13884.03,14347.29 13891.97,14024.5 13899.91,13699.06 14071.89,13699.06 14243.87,13699.06 14243.87,14506.04 14243.87,15313.02 14066.6,15320.96 13886.68,15328.9 13886.68,14995.52 13886.68,14664.79 13622.1,14664.79 13357.52,14664.79 13357.52,14995.52 13357.52,15326.25 13172.31,15326.25 12987.1,15326.25 12992.39,14513.98 "/>
   <polygon class="fil0" points="14495.21,14506.04 14495.21,13685.83 14680.42,13685.83 14865.63,13685.83 14865.63,14506.04 14865.63,15326.25 14680.42,15326.25 14495.21,15326.25 "/>
   <path class="fil0" d="M8719.35 13402.73c-10.58,-7.94 -18.52,-240.77 -18.52,-515.94l0 -497.42 235.48 0c267.23,0 336.02,18.52 436.56,119.06 108.48,108.48 156.1,224.9 156.1,383.65 0,325.44 -240.77,529.17 -629.71,529.17 -89.96,0 -171.98,-7.94 -179.92,-18.52l0.01 0zm394.23 -232.83c150.81,-60.85 214.31,-275.17 129.65,-436.56 -42.33,-84.67 -161.4,-158.75 -251.35,-158.75 -50.27,0 -52.92,15.88 -52.92,317.5 0,351.9 0,351.9 174.63,277.81l-0.01 0z"/>
   <path class="fil0" d="M9671.85 13402.73c-10.58,-7.94 -18.52,-240.77 -18.52,-510.65l0 -494.77 235.48 -18.52c190.5,-15.88 251.35,-10.58 317.5,21.17 116.42,60.85 161.4,142.88 161.4,291.04 0,113.77 -10.58,140.23 -95.25,219.6l-95.25 89.96 103.19 121.71c55.56,66.15 127,150.81 158.75,190.5 31.75,37.04 58.21,76.73 60.85,89.96 0,10.58 -63.5,18.52 -137.58,18.52l-140.23 -2.65 -158.75 -203.73 -158.75 -201.08 -7.94 203.73 -7.94 203.73 -100.54 0c-55.56,0 -108.48,-7.94 -116.42,-18.52zm399.52 -605.9c84.67,-58.21 68.79,-169.33 -29.1,-216.96 -116.42,-55.56 -150.81,-26.46 -150.81,127 0,119.06 5.29,132.29 60.85,132.29 31.75,0 87.31,-18.52 119.06,-42.33z"/>
   <path class="fil0" d="M10579.38 13413.31c0,-5.29 66.15,-169.33 148.17,-365.13 79.38,-195.79 177.27,-428.63 214.31,-518.58 63.5,-161.4 68.79,-166.69 164.04,-166.69 89.96,0 97.9,7.94 150.81,140.23 31.75,74.08 119.06,285.75 195.79,468.31 74.08,182.56 148.17,357.19 161.4,391.58 21.17,55.56 15.88,58.21 -105.83,58.21l-129.65 0 -124.35 -317.5c-68.79,-174.63 -134.94,-322.79 -145.52,-330.73 -10.58,-7.94 -50.27,68.79 -87.31,166.69 -37.04,97.9 -92.6,246.06 -124.35,330.73l-55.56 150.81 -132.29 0c-71.44,0 -129.65,-5.29 -129.65,-7.94l-0.01 0.01z"/>
   <path class="fil0" d="M12021.35 13370.98c-254,-153.46 -346.6,-484.19 -209.02,-748.77 52.92,-103.19 84.67,-134.94 198.44,-203.73 124.35,-76.73 399.52,-76.73 521.23,-2.65 116.42,71.44 129.65,116.42 47.63,198.44l-68.79 68.79 -71.44 -52.92c-74.08,-60.85 -216.96,-74.08 -301.62,-29.1 -150.81,82.02 -171.98,388.94 -37.04,529.17 97.9,100.54 240.77,108.48 325.44,18.52 97.9,-103.19 76.73,-150.81 -60.85,-150.81 -113.77,0 -119.06,-2.65 -119.06,-79.38l0 -79.38 251.35 0 251.35 0 0 103.19c0,187.85 -103.19,354.54 -269.87,441.85 -103.19,55.56 -359.83,47.63 -457.73,-13.23l-0.02 0.01z"/>
   <path class="fil0" d="M13066.46 13365.69c-238.12,-145.52 -330.73,-452.44 -211.67,-698.5 66.15,-140.23 100.54,-179.92 211.67,-248.71 111.13,-66.15 343.96,-74.08 484.19,-15.88 121.71,50.27 243.42,198.44 283.1,349.25 68.79,238.13 -68.79,539.75 -283.1,629.71 -140.23,58.21 -373.06,50.27 -484.19,-15.88l0 0.01zm391.58 -198.44c84.67,-58.21 137.58,-177.27 137.58,-304.27 0,-216.96 -256.65,-367.77 -412.75,-240.77 -84.67,68.79 -116.42,145.52 -116.42,288.4 2.65,235.48 219.6,378.35 391.58,256.65l0.01 -0.01z"/>
   <path class="fil0" d="M13966.04 12894.73l0 -531.81 116.42 0 116.42 0 166.69 267.23c277.81,439.21 259.29,433.92 261.94,58.21l0 -325.44 119.06 0 119.06 0 0 529.17 0 529.17 -119.06 0 -116.42 0 -211.67 -322.79 -211.67 -325.44 -7.94 317.5 -7.94 317.5 -111.13 7.94 -113.77 7.94 0 -529.17 0.01 -0.01z"/>
  </g>
  <g id="layer103">
   <path class="fil0" d="M6065.58 15297.15c-58.21,-29.1 -137.58,-148.17 -182.56,-267.23 -15.88,-47.63 -21.17,-444.5 -13.23,-1090.08 7.94,-558.27 2.65,-1010.71 -7.94,-1002.77 -23.81,13.23 2.65,-116.42 39.69,-185.21 47.63,-92.6 113.77,-153.46 203.73,-193.15 127,-52.92 1034.52,-50.27 1272.65,2.65 238.13,55.56 529.17,169.33 529.17,203.73 0,13.23 10.58,21.17 23.81,21.17 47.63,0 222.25,179.92 203.73,209.02 -10.58,15.88 -68.79,-13.23 -158.75,-87.31 -198.44,-161.4 -367.77,-232.83 -690.56,-293.69 -42.33,-7.94 -312.21,-15.88 -597.96,-18.52 -579.44,-5.29 -613.83,2.65 -703.79,171.98 -42.33,76.73 -47.63,179.92 -47.63,1156.23 0,1418.17 -44.98,1325.56 672.04,1320.27 240.77,0 468.31,0 502.71,0 92.6,2.65 457.73,-68.79 539.75,-105.83 39.69,-18.52 71.44,-42.33 71.44,-55.56 0,-10.58 18.52,-21.17 42.33,-21.17 79.38,0 378.35,-264.58 381,-336.02 0,-18.52 10.58,-34.4 21.17,-34.4 13.23,0 42.33,-50.27 68.79,-111.13 23.81,-63.5 55.56,-134.94 68.79,-158.75 15.88,-26.46 37.04,-153.46 52.92,-283.1 21.17,-185.21 18.52,-296.33 -10.58,-494.77 -21.17,-142.88 -34.4,-267.23 -29.1,-277.81 7.94,-10.58 -5.29,-26.46 -29.1,-34.4 -26.46,-10.58 -34.4,-34.4 -23.81,-71.44 13.23,-34.4 7.94,-50.27 -7.94,-39.69 -31.75,18.52 -145.52,-161.4 -124.35,-198.44 10.58,-13.23 23.81,-23.81 34.4,-23.81 52.92,0 219.6,396.88 254,611.19 34.4,203.73 18.52,590.02 -31.75,764.65 -95.25,325.44 -275.17,597.96 -367.77,563.56 -31.75,-13.23 -39.69,-5.29 -26.46,26.46 18.52,47.63 -2.65,66.15 -166.69,156.1 -108.48,60.85 -354.54,148.17 -449.79,161.4 -21.17,5.29 -50.27,13.23 -66.15,21.17 -52.92,29.1 -1190.62,23.81 -1246.19,-5.29l-0.02 -0.01z"/>
   <path class="fil0" d="M9084.48 15299.79c10.58,-15.88 -10.58,-26.46 -52.92,-26.46 -60.85,0 -164.04,-42.33 -198.44,-82.02 -7.94,-7.94 -34.4,-21.17 -58.21,-31.75 -39.69,-13.23 -42.33,-26.46 -15.88,-84.67 15.88,-37.04 39.69,-66.15 52.92,-66.15 10.58,0 21.17,-18.52 21.17,-39.69 0,-23.81 18.52,-47.63 39.69,-55.56 21.17,-10.58 31.75,-26.46 23.81,-42.33 -7.94,-13.23 7.94,-10.58 39.69,10.58 31.75,18.52 55.56,42.33 55.56,52.92 0,13.23 23.81,21.17 52.92,21.17 29.1,0 52.92,13.23 52.92,26.46 0,15.88 74.08,26.46 171.98,26.46 185.21,0 304.27,-50.27 304.27,-129.65 0,-37.04 -5.29,-37.04 -26.46,-2.65 -18.52,29.1 -26.46,18.52 -26.46,-44.98 0,-66.15 -15.88,-89.96 -79.38,-119.06 -42.33,-18.52 -79.38,-42.33 -79.38,-52.92 0,-13.23 -18.52,-21.17 -39.69,-21.17 -21.17,0 -39.69,-10.58 -39.69,-26.46 0,-13.23 -23.81,-26.46 -52.92,-26.46 -55.56,0 -116.42,-42.33 -254,-179.92 -79.38,-79.38 -87.31,-100.54 -84.67,-243.42 0,-87.31 13.23,-158.75 26.46,-158.75 13.23,0 15.88,-10.58 7.94,-26.46 -7.94,-13.23 -2.65,-26.46 10.58,-26.46 15.88,0 29.1,-13.23 29.1,-29.1 0,-13.23 -13.23,-18.52 -31.75,-7.94 -15.88,10.58 -21.17,7.94 -13.23,-10.58 10.58,-13.23 44.98,-21.17 74.08,-13.23 47.63,13.23 52.92,7.94 37.04,-42.33 -13.23,-39.69 -5.29,-55.56 23.81,-55.56 23.81,0 42.33,-10.58 42.33,-26.46 0,-13.23 23.81,-26.46 50.27,-26.46 29.1,0 60.85,-10.58 68.79,-26.46 7.94,-13.23 92.6,-26.46 187.85,-26.46 95.25,0 169.33,10.58 169.33,26.46 0,15.88 37.04,26.46 82.02,26.46 44.98,0 74.08,10.58 63.5,26.46 -10.58,15.88 13.23,26.46 50.27,26.46 50.27,0 68.79,13.23 68.79,52.92 0,60.85 -10.58,63.5 -79.38,26.46 -37.04,-18.52 -50.27,-13.23 -60.85,26.46 -15.88,66.15 2.65,84.67 63.5,50.27 39.69,-18.52 44.98,-15.88 34.4,15.88 -10.58,21.17 -26.46,39.69 -39.69,39.69 -13.23,0 -23.81,18.52 -23.81,42.33 0,29.1 -15.88,37.04 -58.21,21.17 -34.4,-7.94 -63.5,-29.1 -68.79,-39.69 -15.88,-37.04 -322.79,-29.1 -359.83,10.58 -55.56,55.56 -68.79,148.17 -21.17,174.63 34.4,21.17 37.04,31.75 7.94,66.15 -21.17,23.81 -23.81,42.33 -7.94,42.33 15.88,0 34.4,-15.88 42.33,-31.75 13.23,-26.46 18.52,-26.46 31.75,0 7.94,15.88 37.04,31.75 66.15,31.75 26.46,0 50.27,13.23 50.27,26.46 0,15.88 15.88,26.46 34.4,26.46 47.63,0 177.27,63.5 177.27,87.31 0,10.58 15.88,18.52 34.4,18.52 42.33,0 161.4,103.19 198.44,177.27 42.33,76.73 39.69,238.13 0,254 -26.46,10.58 -26.46,18.52 0,39.69 29.1,18.52 26.46,42.33 -10.58,119.06 -37.04,76.73 -60.85,97.9 -119.06,97.9 -60.85,0 -68.79,7.94 -58.21,55.56 13.23,50.27 7.94,55.56 -52.92,44.98 -42.33,-7.94 -66.15,-2.65 -63.5,15.88 2.65,18.52 -79.38,31.75 -240.77,37.04 -166.69,5.29 -243.42,-2.65 -230.19,-21.17l0.04 0zm-137.58 -222.25c10.58,-26.46 2.65,-34.4 -23.81,-23.81 -18.52,7.94 -37.04,23.81 -37.04,37.04 0,37.04 44.98,26.46 60.85,-13.23zm468.31 10.59c0,-13.23 -10.58,-26.46 -26.46,-26.46 -13.23,0 -26.46,13.23 -26.46,26.46 0,15.88 13.23,26.46 26.46,26.46 15.88,0 26.46,-10.58 26.46,-26.46zm370.41 0c0,-13.23 -18.52,-26.46 -42.33,-26.46 -21.17,0 -31.75,13.23 -23.81,26.46 7.94,15.88 26.46,26.46 42.33,26.46 13.23,0 23.81,-10.58 23.81,-26.46zm-846.66 -105.84c0,-13.23 -10.58,-26.46 -26.46,-26.46 -13.23,0 -26.46,13.23 -26.46,26.46 0,15.88 13.23,26.46 26.46,26.46 15.88,0 26.46,-10.58 26.46,-26.46zm854.6 -134.94c13.23,-7.94 5.29,-23.81 -18.52,-31.75 -31.75,-13.23 -42.33,0 -42.33,39.69 0,31.75 7.94,44.98 21.17,31.75 10.58,-13.23 29.1,-31.75 39.69,-39.69l-0.01 0zm-227.54 -161.39c-7.94,-21.17 -15.88,-13.23 -15.88,15.88 -2.65,29.1 5.29,44.98 13.23,34.4 7.94,-7.94 10.58,-31.75 2.65,-50.27l0 -0.01zm272.52 31.75c0,-13.23 -10.58,-26.46 -26.46,-26.46 -13.23,0 -26.46,13.23 -26.46,26.46 0,15.88 13.23,26.46 26.46,26.46 15.88,0 26.46,-10.58 26.46,-26.46zm-304.27 -105.84c-7.94,-13.23 -26.46,-26.46 -42.33,-26.46 -13.23,0 -23.81,13.23 -23.81,26.46 0,15.88 18.52,26.46 42.33,26.46 21.17,0 31.75,-10.58 23.81,-26.46zm-338.67 -124.35c-10.58,-7.94 -18.52,0 -18.52,18.52 0,18.52 7.94,26.46 18.52,18.52 7.94,-10.58 7.94,-26.46 0,-37.04zm-97.89 -140.23c0,-13.23 -23.81,-26.46 -52.92,-26.46 -29.1,0 -52.92,13.23 -52.92,26.46 0,15.88 23.81,26.46 52.92,26.46 29.1,0 52.92,-10.58 52.92,-26.46zm-105.84 -105.83c0,-13.23 -5.29,-26.46 -10.58,-26.46 -7.94,0 -21.17,13.23 -29.1,26.46 -7.94,15.88 -2.65,26.46 10.58,26.46 15.88,0 29.1,-10.58 29.1,-26.46zm177.28 -18.52c-10.58,-7.94 -18.52,0 -18.52,18.52 0,18.52 7.94,26.46 18.52,18.52 7.94,-10.58 7.94,-26.46 0,-37.04zm74.08 -246.06c7.94,-13.23 10.58,-26.46 2.65,-26.46 -7.94,0 -21.17,13.23 -29.1,26.46 -7.94,15.88 -10.58,26.46 -2.65,26.46 7.94,0 21.17,-10.58 29.1,-26.46zm171.98 -214.32c0,-37.04 -44.98,-26.46 -60.85,13.23 -10.58,26.46 -2.65,34.4 23.81,23.81 18.52,-7.94 37.04,-23.81 37.04,-37.04zm-158.75 2.65c0,-13.23 -10.58,-26.46 -26.46,-26.46 -13.23,0 -26.46,13.23 -26.46,26.46 0,15.88 13.23,26.46 26.46,26.46 15.88,0 26.46,-10.58 26.46,-26.46z"/>
   <path class="fil0" d="M10526.46 15299.79c0,-13.23 13.23,-26.46 26.46,-26.46 15.88,0 26.46,-10.58 26.46,-26.46 0,-13.23 -18.52,-26.46 -39.69,-26.46 -21.17,0 -39.69,13.23 -39.69,26.46 0,15.88 -23.81,26.46 -52.92,26.46 -29.1,0 -52.92,-10.58 -52.92,-26.46 0,-13.23 -13.23,-26.46 -29.1,-26.46 -47.63,0 -156.1,-140.23 -156.1,-203.73 0,-31.75 -13.23,-60.85 -29.1,-66.15 -23.81,-7.94 -23.81,-26.46 2.65,-71.44 23.81,-47.63 23.81,-66.15 0,-82.02 -26.46,-15.88 -34.4,-418.04 -23.81,-1034.52 0,-37.04 29.1,-42.33 164.04,-37.04l164.04 5.29 7.94 526.52c2.65,291.04 10.58,550.33 18.52,582.08 13.23,66.15 89.96,153.46 145.52,166.69 76.73,18.52 224.9,2.65 232.83,-23.81 5.29,-13.23 23.81,-26.46 42.33,-26.46 82.02,0 105.83,-142.88 116.42,-679.98l10.58 -537.1 153.46 0 150.81 0 5.29 529.17c5.29,518.58 5.29,529.17 -47.63,529.17 -37.04,0 -55.56,15.88 -55.56,52.92 0,29.1 0,60.85 -2.65,71.44 -5.29,47.63 50.27,29.1 76.73,-23.81 26.46,-58.21 29.1,-58.21 29.1,18.52 2.65,50.27 -15.88,95.25 -47.63,119.06 -29.1,18.52 -47.63,44.98 -42.33,55.56 15.88,23.81 -79.38,129.65 -116.42,129.65 -15.88,0 -29.1,13.23 -29.1,26.46 0,15.88 -47.63,26.46 -105.83,26.46 -58.21,0 -105.83,13.23 -105.83,26.46 0,15.88 -52.92,26.46 -119.06,26.46 -95.25,0 -119.06,-7.94 -119.06,-44.98 -2.65,-44.98 -2.65,-44.98 -37.04,0 -37.04,47.63 -121.71,60.85 -121.71,18.52l0 -0.01zm568.85 -105.83c7.94,-13.23 10.58,-26.46 2.65,-26.46 -7.94,0 -21.17,13.23 -29.1,26.46 -7.94,15.88 -10.58,26.46 -2.65,26.46 7.94,0 21.17,-10.58 29.1,-26.46zm-627.06 -76.73c7.94,-21.17 -2.65,-31.75 -23.81,-23.81 -18.52,5.29 -39.69,26.46 -44.98,44.98 -7.94,21.17 2.65,31.75 23.81,23.81 18.52,-5.29 39.69,-26.46 44.98,-44.98zm-100.54 -15.88c0,-21.17 -18.52,-39.69 -39.69,-39.69 -42.33,0 -52.92,31.75 -21.17,60.85 29.1,31.75 60.85,21.17 60.85,-21.17l0.01 0.01zm629.71 -39.68c-2.65,-42.33 -7.94,-79.38 -10.58,-79.38 -79.38,0 -124.35,113.77 -55.56,140.23 63.5,26.46 71.44,18.52 66.15,-60.85l-0.01 0zm-743.48 -44.98c-10.58,-7.94 -18.52,0 -18.52,18.52 0,18.52 7.94,26.46 18.52,18.52 7.94,-10.58 7.94,-26.46 0,-37.04zm185.21 -132.29c-23.81,-23.81 -50.27,-37.04 -60.85,-29.1 -26.46,26.46 15.88,74.08 63.5,74.08 39.69,0 39.69,-2.65 -2.65,-44.98zm767.29 -79.38c-10.58,-7.94 -26.46,-7.94 -37.04,0 -7.94,10.58 0,18.52 18.52,18.52 18.52,0 26.46,-7.94 18.52,-18.52zm60.85 -986.89c0,-13.23 -18.52,-26.46 -39.69,-26.46 -21.17,0 -39.69,13.23 -39.69,26.46 0,15.88 18.52,26.46 39.69,26.46 21.17,0 39.69,-10.58 39.69,-26.46zm-793.75 -37.05c0,-7.94 -13.23,-21.17 -31.75,-31.75 -18.52,-10.58 -21.17,-7.94 -10.58,10.58 18.52,31.75 42.33,42.33 42.33,21.17z"/>
   <path class="fil0" d="M11955.21 15299.79c0,-13.23 -34.4,-26.46 -79.38,-26.46 -42.33,0 -79.38,-10.58 -79.38,-26.46 0,-13.23 -18.52,-26.46 -39.69,-26.46 -21.17,0 -39.69,-10.58 -39.69,-23.81 0,-13.23 -18.52,-44.98 -42.33,-66.15 -37.04,-39.69 -37.04,-44.98 0,-84.67 23.81,-21.17 42.33,-50.27 42.33,-63.5 0,-13.23 18.52,-42.33 42.33,-66.15 39.69,-37.04 47.63,-37.04 105.83,0 34.4,21.17 79.38,39.69 103.19,39.69 21.17,0 39.69,13.23 39.69,26.46 0,15.88 79.38,26.46 182.56,26.46 182.56,0 219.6,-21.17 211.67,-116.42 0,-13.23 13.23,-31.75 31.75,-42.33 23.81,-15.88 21.17,-31.75 -10.58,-66.15 -26.46,-23.81 -44.98,-55.56 -44.98,-68.79 0,-13.23 -18.52,-23.81 -39.69,-23.81 -23.81,0 -39.69,-23.81 -42.33,-58.21 0,-50.27 -5.29,-52.92 -18.52,-15.88 -18.52,42.33 -26.46,42.33 -95.25,7.94 -39.69,-21.17 -92.6,-39.69 -111.13,-39.69 -21.17,0 -37.04,-10.58 -37.04,-21.17 0,-13.23 -29.1,-39.69 -66.15,-58.21 -34.4,-18.52 -58.21,-44.98 -50.27,-58.21 7.94,-10.58 0,-21.17 -15.88,-21.17 -52.92,0 -105.83,-74.08 -105.83,-150.81 0,-58.21 -5.29,-66.15 -26.46,-34.4 -18.52,29.1 -26.46,10.58 -26.46,-71.44 0,-63.5 13.23,-113.77 29.1,-113.77 13.23,0 18.52,-10.58 10.58,-26.46 -7.94,-13.23 -2.65,-26.46 13.23,-26.46 15.88,0 21.17,-13.23 10.58,-29.1 -7.94,-15.88 18.52,-63.5 58.21,-105.83 66.15,-71.44 79.38,-74.08 105.83,-37.04 23.81,31.75 37.04,34.4 52.92,10.58 10.58,-18.52 5.29,-39.69 -10.58,-44.98 -50.27,-15.88 -37.04,-58.21 18.52,-58.21 29.1,0 60.85,-10.58 68.79,-26.46 7.94,-13.23 92.6,-26.46 185.21,-26.46 92.6,0 177.27,13.23 185.21,26.46 10.58,15.88 -13.23,26.46 -50.27,26.46 -37.04,0 -68.79,13.23 -68.79,29.1 0,18.52 18.52,21.17 47.63,10.58 95.25,-37.04 216.96,-47.63 216.96,-15.88 0,15.88 23.81,29.1 50.27,29.1 66.15,0 100.54,52.92 37.04,55.56 -26.46,2.65 -58.21,2.65 -74.08,0 -13.23,-2.65 -5.29,13.23 21.17,34.4 39.69,31.75 42.33,47.63 15.88,105.83 -34.4,76.73 -76.73,92.6 -76.73,29.1 0,-42.33 -39.69,-55.56 -60.85,-18.52 -7.94,10.58 -89.96,15.88 -185.21,10.58 -150.81,-7.94 -174.63,-15.88 -187.85,-66.15 -13.23,-47.63 -21.17,-50.27 -42.33,-18.52 -13.23,23.81 -13.23,50.27 0,63.5 23.81,23.81 5.29,97.9 -31.75,124.35 -29.1,18.52 31.75,156.1 68.79,156.1 15.88,0 58.21,23.81 95.25,52.92 37.04,29.1 92.6,52.92 127,52.92 31.75,0 58.21,13.23 58.21,26.46 0,15.88 21.17,26.46 47.63,26.46 26.46,0 63.5,23.81 84.67,52.92 21.17,29.1 47.63,52.92 60.85,52.92 34.4,0 97.9,71.44 79.38,89.96 -10.58,7.94 -5.29,15.88 10.58,15.88 79.38,0 113.77,267.23 47.63,359.83 -21.17,31.75 -31.75,63.5 -21.17,71.44 18.52,21.17 -58.21,97.9 -97.9,97.9 -15.88,0 -23.81,10.58 -15.88,21.17 7.94,13.23 -18.52,39.69 -58.21,58.21 -39.69,18.52 -92.6,42.33 -116.42,55.56 -66.15,31.75 -497.42,29.1 -497.42,-2.65l0.01 0.04zm26.46 -211.66c0,-13.23 -18.52,-26.46 -39.69,-26.46 -21.17,0 -39.69,13.23 -39.69,26.46 0,15.88 18.52,26.46 39.69,26.46 21.17,0 39.69,-10.58 39.69,-26.46zm714.37 -52.92c0,-13.23 -10.58,-26.46 -26.46,-26.46 -13.23,0 -26.46,13.23 -26.46,26.46 0,15.88 13.23,26.46 26.46,26.46 15.88,0 26.46,-10.58 26.46,-26.46zm-185.21 -52.92c0,-13.23 -5.29,-26.46 -10.58,-26.46 -7.94,0 -21.17,13.23 -29.1,26.46 -7.94,15.88 -2.65,26.46 10.58,26.46 15.88,0 29.1,-10.58 29.1,-26.46zm44.98 -124.35c-10.58,-7.94 -18.52,0 -18.52,18.52 0,18.52 7.94,26.46 18.52,18.52 7.94,-10.58 7.94,-26.46 0,-37.04zm193.15 -34.4c0,-13.23 -5.29,-26.46 -10.58,-26.46 -7.94,0 -21.17,13.23 -29.1,26.46 -7.94,15.88 -2.65,26.46 10.58,26.46 15.88,0 29.1,-10.58 29.1,-26.46zm-166.69 -230.19c-10.58,-7.94 -18.52,0 -18.52,18.52 0,18.52 7.94,26.46 18.52,18.52 7.94,-10.58 7.94,-26.46 0,-37.04zm-211.67 -26.45c-10.58,-7.94 -26.46,-7.94 -37.04,0 -7.94,10.58 0,18.52 18.52,18.52 18.52,0 26.46,-7.94 18.52,-18.52zm-44.98 -103.19c0,-7.94 -18.52,-31.75 -39.69,-55.56 -52.92,-50.27 -84.67,-26.46 -37.04,29.1 37.04,39.69 76.73,55.56 76.73,26.46zm-298.97 -399.52c-10.58,-7.94 -18.52,0 -18.52,18.52 0,18.52 7.94,26.46 18.52,18.52 7.94,-10.58 7.94,-26.46 0,-37.04zm-71.44 -140.23c0,-13.23 -10.58,-26.46 -26.46,-26.46 -13.23,0 -26.46,13.23 -26.46,26.46 0,15.88 13.23,26.46 26.46,26.46 15.88,0 26.46,-10.58 26.46,-26.46zm582.08 0c0,-13.23 -5.29,-26.46 -10.58,-26.46 -7.94,0 -21.17,13.23 -29.1,26.46 -7.94,15.88 -2.65,26.46 10.58,26.46 15.88,0 29.1,-10.58 29.1,-26.46zm-272.52 -71.44c-10.58,-7.94 -18.52,0 -18.52,18.52 0,18.52 7.94,26.46 18.52,18.52 7.94,-10.58 7.94,-26.46 0,-37.04z"/>
   <path class="fil0" d="M13312.52 15281.27c-18.52,-5.29 -34.4,-29.1 -34.4,-50.27 0,-21.17 -10.58,-37.04 -26.46,-37.04 -13.23,0 -18.52,18.52 -10.58,39.69 13.23,31.75 -7.94,39.69 -111.13,39.69l-129.65 0 7.94 -238.13c5.29,-142.88 21.17,-238.13 37.04,-238.13 18.52,0 18.52,-10.58 0,-31.75 -34.4,-42.33 -42.33,-182.56 -37.04,-648.23l5.29 -378.35 161.4 0 158.75 0 -7.94 317.5 -7.94 317.5 298.98 0 296.33 0 0 -314.85c0,-351.9 0,-351.9 219.6,-325.44l97.9 10.58 0 762c0,878.42 23.81,812.27 -283.1,772.58 -23.81,-5.29 -34.4,-95.25 -39.69,-314.85l-7.94 -312.21 -283.1 0c-219.6,0 -285.75,7.94 -291.04,37.04 -5.29,18.52 -2.65,164.04 5.29,322.79 7.94,158.75 13.23,288.4 13.23,285.75 0,0 -15.88,-7.94 -31.75,-15.88l0.01 0.01zm706.44 -616.48c0,-13.23 -5.29,-26.46 -10.58,-26.46 -7.94,0 -21.17,13.23 -29.1,26.46 -7.94,15.88 -2.65,26.46 10.58,26.46 15.88,0 29.1,-10.58 29.1,-26.46zm-60.86 -150.81c-10.58,-7.94 -26.46,-7.94 -37.04,0 -7.94,10.58 0,18.52 18.52,18.52 18.52,0 26.46,-7.94 18.52,-18.52zm-838.73 -669.4c0,-29.1 -5.29,-52.92 -10.58,-52.92 -5.29,0 -15.88,23.81 -23.81,52.92 -7.94,29.1 -2.65,52.92 10.58,52.92 13.23,0 23.81,-23.81 23.81,-52.92zm150.82 34.4c-10.58,-7.94 -26.46,-7.94 -37.04,0 -7.94,10.58 0,18.52 18.52,18.52 18.52,0 26.46,-7.94 18.52,-18.52z"/>
   <path class="fil0" d="M14569.29 15281.27l-74.08 -10.58 0 -767.29 0 -764.65 145.52 0c134.94,0 190.5,29.1 113.77,60.85 -26.46,10.58 -26.46,21.17 5.29,42.33 21.17,13.23 47.63,18.52 58.21,13.23 10.58,-7.94 21.17,309.56 21.17,701.15 0,664.1 -2.65,717.02 -44.98,719.67 -26.46,0 -71.44,5.29 -100.54,7.94 -29.1,2.65 -84.67,2.65 -124.35,-2.65l-0.01 0zm84.67 -87.31c0,-13.23 -23.81,-26.46 -52.92,-26.46 -29.1,0 -52.92,13.23 -52.92,26.46 0,15.88 23.81,26.46 52.92,26.46 29.1,0 52.92,-10.58 52.92,-26.46zm158.75 0c0,-13.23 -18.52,-18.52 -39.69,-10.58 -21.17,10.58 -39.69,21.17 -39.69,26.46 0,5.29 18.52,10.58 39.69,10.58 21.17,0 39.69,-10.58 39.69,-26.46zm-219.61 -1314.98c-10.58,-7.94 -26.46,-7.94 -37.04,0 -7.94,10.58 0,18.52 18.52,18.52 18.52,0 26.46,-7.94 18.52,-18.52z"/>
   <path class="fil0" d="M6774.67 14913.5c-314.85,-216.96 -463.02,-425.98 -494.77,-701.15l-15.88 -142.88 58.21 105.83c116.42,211.67 542.4,542.4 698.5,542.4 66.15,0 383.65,-285.75 383.65,-346.6 0,-74.08 -134.94,-129.65 -391.58,-158.75 -127,-15.88 -280.46,-34.4 -341.31,-39.69 -60.85,-7.94 -148.17,-39.69 -198.44,-71.44 -164.04,-111.13 -367.77,-542.4 -320.15,-674.69 23.81,-63.5 277.81,-267.23 418.04,-333.38 52.92,-26.46 166.69,-58.21 254,-76.73 148.17,-26.46 158.75,-34.4 148.17,-89.96 -13.23,-74.08 23.81,-76.73 153.46,-15.88 116.42,55.56 145.52,29.1 71.44,-71.44 -76.73,-103.19 -74.08,-113.77 18.52,-66.15 42.33,21.17 116.42,92.6 164.04,158.75 89.96,127 129.65,148.17 129.65,74.08 0,-26.46 26.46,7.94 60.85,71.44 50.27,100.54 68.79,119.06 132.29,113.77 68.79,-5.29 74.08,0 66.15,89.96 -5.29,66.15 5.29,103.19 37.04,121.71 55.56,37.04 95.25,2.65 52.92,-39.69 -60.85,-60.85 -31.75,-74.08 34.4,-15.88 63.5,55.56 82.02,132.29 50.27,216.96 -18.52,47.63 -177.27,58.21 -230.19,15.88 -127,-105.83 -243.42,-185.21 -272.52,-185.21 -60.85,0 -10.58,74.08 84.67,132.29 52.92,29.1 84.67,66.15 76.73,79.38 -23.81,39.69 37.04,105.83 95.25,105.83 58.21,0 63.5,29.1 18.52,74.08 -47.63,47.63 -209.02,37.04 -293.69,-18.52l-76.73 -50.27 58.21 -39.69c66.15,-44.98 58.21,-50.27 -111.13,-97.9 -121.71,-31.75 -232.83,-108.48 -232.83,-161.4 0,-15.88 18.52,-15.88 50.27,2.65 55.56,26.46 142.88,7.94 121.71,-26.46 -23.81,-39.69 -195.79,-52.92 -322.79,-26.46 -187.85,42.33 -325.44,140.23 -325.44,235.48 0,42.33 15.88,87.31 34.4,100.54 15.88,15.88 179.92,47.63 362.48,74.08 365.13,47.63 732.9,132.29 791.1,179.92 26.46,21.17 31.75,74.08 23.81,190.5 -18.52,201.08 -116.42,402.17 -280.46,566.21 -137.58,137.58 -431.27,346.6 -486.83,346.6 -21.17,0 -134.94,-66.15 -254,-148.17l-0.01 0.05zm867.83 -1566.33c0,-34.4 -60.85,-84.67 -103.19,-84.67 -29.1,0 -26.46,10.58 10.58,52.92 50.27,55.56 92.6,68.79 92.6,31.75l0.01 0z"/>
   <path class="fil0" d="M14812.71 13765.21c0,-18.52 7.94,-26.46 18.52,-18.52 7.94,10.58 7.94,26.46 0,37.04 -10.58,7.94 -18.52,0 -18.52,-18.52z"/>
   <path class="fil0" d="M12352.08 13394.79c0,-15.88 -71.44,-23.81 -164.04,-23.81 -103.19,2.65 -169.33,-7.94 -174.63,-26.46 -5.29,-15.88 -26.46,-29.1 -47.63,-29.1 -39.69,0 -21.17,-76.73 26.46,-113.77 15.88,-10.58 -5.29,-13.23 -47.63,-2.65 -82.02,18.52 -121.71,-15.88 -121.71,-116.42 0,-34.4 -10.58,-55.56 -23.81,-47.63 -34.4,23.81 -58.21,-145.52 -31.75,-235.48 37.04,-127 87.31,-224.9 116.42,-224.9 15.88,0 18.52,-7.94 10.58,-15.88 -21.17,-21.17 113.77,-142.88 158.75,-142.88 15.88,0 34.4,7.94 42.33,21.17 5.29,10.58 5.29,5.29 2.65,-13.23 -10.58,-47.63 148.17,-74.08 179.92,-31.75 18.52,29.1 29.1,29.1 39.69,5.29 15.88,-39.69 87.31,-44.98 87.31,-7.94 0,15.88 31.75,26.46 71.44,26.46 37.04,0 60.85,7.94 52.92,15.88 -10.58,10.58 7.94,42.33 39.69,68.79 44.98,39.69 50.27,55.56 23.81,71.44 -42.33,26.46 -216.96,7.94 -251.35,-26.46 -37.04,-34.4 -113.77,-29.1 -177.27,10.58 -44.98,26.46 -60.85,26.46 -68.79,0 -13.23,-39.69 -87.31,-47.63 -87.31,-10.58 0,13.23 26.46,29.1 55.56,37.04 52.92,13.23 52.92,18.52 15.88,55.56 -23.81,23.81 -52.92,42.33 -66.15,42.33 -34.4,0 -18.52,322.79 18.52,391.58 18.52,31.75 23.81,71.44 15.88,84.67 -7.94,13.23 0,18.52 21.17,10.58 21.17,-7.94 44.98,5.29 52.92,26.46 7.94,21.17 37.04,31.75 66.15,26.46 31.75,-10.58 58.21,5.29 79.38,47.63 29.1,58.21 29.1,58.21 44.98,7.94 7.94,-31.75 47.63,-68.79 87.31,-87.31 82.02,-34.4 142.88,-164.04 108.48,-219.6 -15.88,-26.46 -23.81,-29.1 -23.81,-2.65 0,18.52 -39.69,31.75 -105.83,31.75 -100.54,0 -105.83,-5.29 -105.83,-79.38l0 -79.38 224.9 0 224.9 0 -13.23 174.63c-13.23,137.58 -29.1,187.85 -82.02,240.77 -34.4,34.4 -63.5,52.92 -63.5,42.33 0,-10.58 -15.88,-2.65 -34.4,18.52 -42.33,52.92 -177.27,113.77 -177.27,79.38l-0.04 0.02zm190.5 -296.33c-23.81,-23.81 -31.75,-18.52 -31.75,31.75 0,50.27 7.94,55.56 31.75,31.75 23.81,-23.81 23.81,-39.69 0,-63.5zm-674.68 13.23c-10.58,-7.94 -18.52,0 -18.52,18.52 0,18.52 7.94,26.46 18.52,18.52 7.94,-10.58 7.94,-26.46 0,-37.04zm87.31 -34.4c0,-13.23 -10.58,-26.46 -26.46,-26.46 -13.23,0 -26.46,13.23 -26.46,26.46 0,15.88 13.23,26.46 26.46,26.46 15.88,0 26.46,-10.58 26.46,-26.46zm687.91 -105.83c0,-13.23 -18.52,-26.46 -39.69,-26.46 -21.17,0 -39.69,13.23 -39.69,26.46 0,15.88 18.52,26.46 39.69,26.46 21.17,0 39.69,-10.58 39.69,-26.46zm-158.75 -478.9c0,-13.23 -10.58,-23.81 -26.46,-23.81 -13.23,0 -26.46,18.52 -26.46,42.33 0,21.17 13.23,31.75 26.46,23.81 15.88,-7.94 26.46,-26.46 26.46,-42.33zm-105.83 2.65c0,-13.23 -10.58,-26.46 -26.46,-26.46 -13.23,0 -26.46,13.23 -26.46,26.46 0,15.88 13.23,26.46 26.46,26.46 15.88,0 26.46,-10.58 26.46,-26.46z"/>
   <path class="fil0" d="M13172.29 13394.79c0,-13.23 -23.81,-26.46 -52.92,-26.46 -29.1,0 -52.92,-10.58 -52.92,-26.46 0,-13.23 -18.52,-26.46 -39.69,-26.46 -23.81,0 -50.27,-21.17 -58.21,-44.98 -10.58,-26.46 -39.69,-68.79 -68.79,-92.6 -26.46,-23.81 -42.33,-55.56 -34.4,-68.79 5.29,-10.58 -2.65,-68.79 -23.81,-127 -42.33,-116.42 -50.27,-206.38 -18.52,-185.21 10.58,5.29 37.04,2.65 58.21,-13.23 26.46,-15.88 29.1,-23.81 7.94,-23.81 -18.52,0 -34.4,-29.1 -34.4,-66.15 0,-37.04 10.58,-66.15 23.81,-66.15 15.88,0 47.63,-34.4 74.08,-79.38 23.81,-42.33 68.79,-79.38 95.25,-79.38 26.46,0 39.69,-10.58 31.75,-26.46 -7.94,-13.23 7.94,-26.46 37.04,-26.46 31.75,0 55.56,-10.58 55.56,-26.46 0,-13.23 18.52,-26.46 39.69,-26.46 21.17,0 39.69,13.23 39.69,26.46 0,15.88 -18.52,26.46 -39.69,26.46 -21.17,0 -39.69,13.23 -39.69,26.46 0,50.27 100.54,26.46 113.77,-26.46 13.23,-55.56 134.94,-76.73 164.04,-26.46 7.94,15.88 39.69,26.46 66.15,26.46 58.21,0 161.4,79.38 142.88,108.48 -5.29,10.58 10.58,26.46 37.04,34.4 26.46,10.58 66.15,47.63 87.31,84.67 47.63,89.96 47.63,447.15 0,492.13 -29.1,29.1 -31.75,23.81 -15.88,-23.81 13.23,-47.63 5.29,-60.85 -26.46,-60.85 -29.1,0 -39.69,13.23 -29.1,39.69 7.94,21.17 23.81,58.21 31.75,79.38 7.94,21.17 5.29,39.69 -10.58,39.69 -15.88,0 -31.75,-15.88 -39.69,-31.75 -5.29,-18.52 -21.17,-23.81 -34.4,-13.23 -13.23,10.58 -5.29,31.75 15.88,44.98 31.75,18.52 23.81,37.04 -39.69,89.96 -44.98,37.04 -100.54,68.79 -124.35,68.79 -26.46,0 -47.63,13.23 -47.63,26.46 0,15.88 -66.15,26.46 -145.52,26.46 -79.38,0 -145.52,-10.58 -145.52,-26.46l0.02 -0.01zm283.11 -66.14c21.17,-23.81 31.75,-50.27 21.17,-60.85 -10.58,-10.58 -26.46,-2.65 -31.75,15.88 -7.94,15.88 -34.4,31.75 -63.5,31.75 -26.46,0 -50.27,13.23 -50.27,26.46 0,39.69 79.38,31.75 124.35,-13.23l0 -0.01zm37.04 -153.46c76.73,-60.85 105.83,-153.46 100.54,-317.5 -5.29,-137.58 -15.88,-174.63 -74.08,-227.54 -47.63,-42.33 -52.92,-55.56 -21.17,-47.63 29.1,10.58 44.98,2.65 44.98,-21.17 0,-44.98 -145.52,-55.56 -171.98,-13.23 -7.94,15.88 -47.63,18.52 -84.67,10.58 -127,-31.75 -248.71,187.85 -240.77,433.92 5.29,71.44 18.52,111.13 39.69,111.13 18.52,0 34.4,21.17 34.4,47.63 0,42.33 23.81,50.27 166.69,52.92 95.25,2.65 179.92,-7.94 206.38,-29.1l-0.01 -0.01zm-531.82 -203.73c0,-13.23 -10.58,-26.46 -26.46,-26.46 -13.23,0 -26.46,13.23 -26.46,26.46 0,15.88 13.23,26.46 26.46,26.46 15.88,0 26.46,-10.58 26.46,-26.46zm105.84 -317.5c0,-13.23 -13.23,-26.46 -29.1,-26.46 -13.23,0 -18.52,13.23 -10.58,26.46 7.94,15.88 21.17,26.46 29.1,26.46 5.29,0 10.58,-10.58 10.58,-26.46zm52.91 -105.83c0,-13.23 -23.81,-26.46 -52.92,-26.46 -29.1,0 -52.92,13.23 -52.92,26.46 0,15.88 23.81,26.46 52.92,26.46 29.1,0 52.92,-10.58 52.92,-26.46zm230.19 -18.53c-10.58,-7.94 -26.46,-7.94 -37.04,0 -7.94,10.58 0,18.52 18.52,18.52 18.52,0 26.46,-7.94 18.52,-18.52z"/>
   <path class="fil0" d="M8798.73 13373.63l-71.44 -7.94 5.29 -481.54 7.94 -481.54 153.46 -7.94c119.06,-5.29 150.81,0 150.81,31.75 0,31.75 15.88,31.75 97.9,7.94 74.08,-23.81 97.9,-23.81 108.48,2.65 5.29,18.52 23.81,31.75 42.33,31.75 15.88,0 47.63,26.46 68.79,55.56 21.17,31.75 55.56,71.44 74.08,92.6 15.88,18.52 31.75,50.27 31.75,71.44 0,23.81 13.23,44.98 31.75,50.27 23.81,7.94 23.81,58.21 -2.65,206.38 -26.46,171.98 -42.33,206.38 -134.94,296.33 -55.56,55.56 -113.77,100.54 -129.65,100.54 -47.63,0 -31.75,-100.54 18.52,-113.77 42.33,-10.58 42.33,-13.23 0,-15.88 -26.46,0 -66.15,29.1 -92.6,71.44 -26.46,39.69 -58.21,79.38 -68.79,87.31 -26.46,18.52 -171.98,21.17 -291.04,2.65l0.01 0zm381 -209.03c164.04,-140.23 171.98,-370.42 18.52,-513.29 -60.85,-55.56 -60.85,-76.73 5.29,-76.73 29.1,0 52.92,-10.58 52.92,-26.46 0,-13.23 -34.4,-26.46 -79.38,-26.46 -42.33,0 -79.38,13.23 -79.38,26.46 0,15.88 -23.81,26.46 -52.92,26.46 -29.1,0 -52.92,-15.88 -52.92,-31.75 0,-23.81 -10.58,-21.17 -26.46,5.29 -13.23,21.17 -26.46,179.92 -26.46,351.9l0 309.56 92.6 0c50.27,0 116.42,-21.17 148.17,-44.98l0.02 0zm235.48 -87.31c0,-13.23 -18.52,-26.46 -39.69,-26.46 -21.17,0 -39.69,13.23 -39.69,26.46 0,15.88 18.52,26.46 39.69,26.46 21.17,0 39.69,-10.58 39.69,-26.46z"/>
   <path class="fil0" d="M9698.31 13376.27c-7.94,-13.23 -13.23,-238.13 -15.88,-500.06l-2.65 -478.9 179.92 -15.88c97.9,-7.94 187.85,-2.65 201.08,10.58 15.88,13.23 58.21,23.81 97.9,23.81 52.92,0 92.6,26.46 140.23,87.31 103.19,134.94 87.31,283.1 -26.46,283.1 -34.4,0 -63.5,13.23 -63.5,26.46 0,15.88 23.81,26.46 52.92,26.46 47.63,0 50.27,5.29 21.17,52.92 -34.4,55.56 -127,74.08 -127,26.46 0,-42.33 -44.98,-31.75 -63.5,15.88 -18.52,44.98 44.98,124.35 76.73,95.25 7.94,-10.58 10.58,13.23 0,55.56 -18.52,66.15 -13.23,71.44 63.5,71.44 44.98,0 82.02,13.23 82.02,26.46 0,15.88 -10.58,26.46 -26.46,26.46 -13.23,0 -26.46,13.23 -26.46,29.1 0,15.88 23.81,23.81 52.92,15.88 29.1,-7.94 52.92,-2.65 52.92,7.94 0,13.23 7.94,39.69 15.88,63.5 13.23,34.4 -2.65,42.33 -89.96,42.33 -116.42,0 -161.4,-55.56 -105.83,-129.65 31.75,-37.04 29.1,-37.04 -10.58,-7.94 -52.92,42.33 -89.96,15.88 -150.81,-97.9 -29.1,-50.27 -29.1,-66.15 0,-87.31 29.1,-18.52 29.1,-29.1 5.29,-39.69 -18.52,-5.29 -34.4,-34.4 -34.4,-63.5 0,-26.46 -10.58,-50.27 -26.46,-50.27 -37.04,0 -34.4,60.85 5.29,100.54 15.88,15.88 23.81,39.69 13.23,47.63 -10.58,10.58 -39.69,-5.29 -66.15,-37.04 -44.98,-52.92 -47.63,-47.63 -44.98,148.17 2.65,116.42 -10.58,211.67 -23.81,222.25 -37.04,26.46 -142.88,26.46 -156.1,2.65l-0.01 0zm87.31 -140.23c0,-13.23 -18.52,-26.46 -39.69,-26.46 -21.17,0 -39.69,13.23 -39.69,26.46 0,15.88 18.52,26.46 39.69,26.46 21.17,0 39.69,-10.58 39.69,-26.46zm0 -169.33c0,-21.17 -10.58,-47.63 -26.46,-55.56 -13.23,-7.94 -26.46,-10.58 -26.46,-2.65 0,5.29 -7.94,29.1 -15.88,52.92 -10.58,29.1 -2.65,42.33 26.46,42.33 23.81,0 42.33,-15.88 42.33,-37.04l0.01 0zm349.25 -267.23c39.69,-52.92 21.17,-153.46 -37.04,-203.73 -31.75,-26.46 -60.85,-76.73 -60.85,-108.48 0,-39.69 -18.52,-60.85 -60.85,-66.15 -52.92,-7.94 -60.85,0 -44.98,44.98 10.58,31.75 5.29,55.56 -10.58,55.56 -18.52,0 -29.1,63.5 -29.1,161.4l0 161.4 113.77 -7.94c60.85,-5.29 119.06,-21.17 129.65,-37.04l-0.02 0zm179.92 -92.6c0,-13.23 -10.58,-26.46 -26.46,-26.46 -13.23,0 -26.46,13.23 -26.46,26.46 0,15.88 13.23,26.46 26.46,26.46 15.88,0 26.46,-10.58 26.46,-26.46zm-508 -100.55c5.29,-18.52 -7.94,-31.75 -31.75,-31.75 -23.81,0 -42.33,18.52 -42.33,42.33 0,44.98 58.21,37.04 74.08,-10.58zm455.08 -60.85c0,-13.23 -23.81,-23.81 -52.92,-23.81 -29.1,0 -52.92,15.88 -52.92,37.04 0,23.81 18.52,31.75 52.92,23.81 29.1,-7.94 52.92,-23.81 52.92,-37.04zm-465.66 -87.31c-15.88,-39.69 -63.5,-60.85 -63.5,-29.1 0,21.17 63.5,89.96 74.08,79.38 2.65,-2.65 0,-26.46 -10.58,-50.27l0 -0.01z"/>
   <path class="fil0" d="M10629.65 13373.63c18.52,-13.23 29.1,-37.04 18.52,-52.92 -26.46,-42.33 42.33,-169.33 82.02,-153.46 29.1,13.23 31.75,-5.29 18.52,-76.73 -10.58,-60.85 -5.29,-92.6 13.23,-92.6 15.88,0 29.1,-15.88 29.1,-34.4 0,-18.52 23.81,-84.67 52.92,-145.52 29.1,-58.21 52.92,-119.06 52.92,-132.29 0,-13.23 31.75,-92.6 68.79,-174.63 55.56,-121.71 79.38,-148.17 132.29,-148.17 68.79,0 169.33,129.65 169.33,219.6 0,23.81 10.58,44.98 21.17,44.98 10.58,0 37.04,55.56 55.56,124.35 21.17,66.15 55.56,156.1 74.08,198.44 21.17,39.69 29.1,87.31 18.52,103.19 -7.94,15.88 0,39.69 18.52,52.92 31.75,21.17 31.75,29.1 -2.65,47.63 -21.17,15.88 -29.1,37.04 -15.88,47.63 13.23,10.58 29.1,5.29 34.4,-10.58 18.52,-52.92 60.85,-39.69 60.85,15.88 0,29.1 15.88,68.79 37.04,89.96 52.92,52.92 18.52,84.67 -95.25,84.67 -108.48,0 -156.1,-29.1 -89.96,-55.56 58.21,-21.17 52.92,-71.44 -5.29,-58.21 -39.69,10.58 -47.63,2.65 -37.04,-47.63 7.94,-47.63 0,-63.5 -34.4,-63.5 -29.1,0 -39.69,-13.23 -29.1,-39.69 7.94,-21.17 5.29,-39.69 -7.94,-39.69 -10.58,0 -42.33,-76.73 -68.79,-171.98 -60.85,-214.31 -116.42,-227.54 -169.33,-44.98 -21.17,68.79 -44.98,129.65 -55.56,137.58 -7.94,7.94 -37.04,79.38 -60.85,158.75 -63.5,198.44 -68.79,206.38 -203.73,224.9 -79.38,13.23 -105.83,7.94 -82.02,-7.94l0.01 0zm365.12 -552.98c-10.58,-7.94 -26.46,-7.94 -37.04,0 -7.94,10.58 0,18.52 18.52,18.52 18.52,0 26.46,-7.94 18.52,-18.52zm105.83 -224.9c-7.94,-18.52 -13.23,-5.29 -13.23,31.75 0,37.04 5.29,50.27 13.23,34.4 5.29,-18.52 5.29,-50.27 0,-66.15zm-44.98 -47.62c0,-13.23 -10.58,-26.46 -26.46,-26.46 -13.23,0 -26.46,13.23 -26.46,26.46 0,15.88 13.23,26.46 26.46,26.46 15.88,0 26.46,-10.58 26.46,-26.46zm39.69 -105.84c7.94,-13.23 2.65,-26.46 -10.58,-26.46 -15.88,0 -29.1,13.23 -29.1,26.46 0,15.88 5.29,26.46 10.58,26.46 7.94,0 21.17,-10.58 29.1,-26.46z"/>
   <path class="fil0" d="M14016.31 13376.27c-39.69,-7.94 -44.98,-66.15 -44.98,-452.44 0,-267.23 10.58,-455.08 26.46,-473.6 18.52,-23.81 18.52,-34.4 -2.65,-34.4 -15.88,0 -29.1,-10.58 -29.1,-26.46 0,-13.23 55.56,-26.46 121.71,-26.46 71.44,0 113.77,10.58 103.19,26.46 -7.94,15.88 -39.69,26.46 -68.79,26.46 -29.1,0 -44.98,13.23 -37.04,26.46 23.81,37.04 119.06,31.75 119.06,-5.29 0,-18.52 29.1,10.58 66.15,63.5 37.04,52.92 66.15,116.42 66.15,137.58 0,23.81 10.58,42.33 21.17,42.33 13.23,0 39.69,31.75 60.85,74.08 21.17,39.69 58.21,89.96 82.02,113.77 26.46,23.81 47.63,60.85 47.63,84.67 0,34.4 50.27,71.44 97.9,71.44 7.94,0 10.58,-111.13 7.94,-243.42 -10.58,-420.69 -10.58,-418.04 76.73,-418.04 66.15,0 79.38,13.23 92.6,89.96 18.52,95.25 0,174.63 -42.33,174.63 -15.88,0 -10.58,18.52 7.94,44.98 39.69,44.98 63.5,547.69 34.4,664.1 -18.52,66.15 -63.5,79.38 -63.5,18.52 0,-21.17 -18.52,-39.69 -39.69,-39.69 -47.63,0 -52.92,42.33 -5.29,63.5 15.88,7.94 2.65,7.94 -34.4,0 -37.04,-10.58 -66.15,-18.52 -66.15,-21.17 0,0 -39.69,-58.21 -87.31,-127 -44.98,-66.15 -84.67,-134.94 -84.67,-150.81 0,-15.88 -10.58,-29.1 -21.17,-29.1 -13.23,0 -37.04,-31.75 -55.56,-68.79 -26.46,-58.21 -23.81,-76.73 15.88,-108.48 44.98,-34.4 42.33,-34.4 -10.58,-10.58 -76.73,39.69 -76.73,39.69 -113.77,-50.27 -42.33,-103.19 -79.38,-100.54 -82.02,7.94 0,44.98 -2.65,193.15 -5.29,322.79 -5.29,216.96 -10.58,238.13 -58.21,243.42 -29.1,0 -71.44,-2.65 -95.25,-10.58l-0.03 -0.01zm100.54 -105.83c-10.58,-7.94 -18.52,0 -18.52,18.52 0,18.52 7.94,26.46 18.52,18.52 7.94,-10.58 7.94,-26.46 0,-37.04zm537.11 -140.23c0,-13.23 -5.29,-26.46 -10.58,-26.46 -7.94,0 -21.17,13.23 -29.1,26.46 -7.94,15.88 -2.65,26.46 10.58,26.46 15.88,0 29.1,-10.58 29.1,-26.46zm-502.71 -264.58c0,-13.23 -18.52,-26.46 -39.69,-26.46 -21.17,0 -39.69,13.23 -39.69,26.46 0,15.88 18.52,26.46 39.69,26.46 21.17,0 39.69,-10.58 39.69,-26.46zm608.54 -333.38c0,-44.98 -58.21,-37.04 -74.08,10.58 -5.29,18.52 7.94,31.75 31.75,31.75 23.81,0 42.33,-18.52 42.33,-42.33z"/>
   <path class="fil0" d="M14839.17 12706.88c0,-18.52 7.94,-26.46 18.52,-18.52 7.94,10.58 7.94,26.46 0,37.04 -10.58,7.94 -18.52,0 -18.52,-18.52z"/>
   <path class="fil0" d="M12484.37 12656.6c0,-15.88 13.23,-34.4 26.46,-42.33 15.88,-7.94 26.46,2.65 26.46,23.81 0,23.81 -10.58,42.33 -26.46,42.33 -13.23,0 -26.46,-10.58 -26.46,-23.81z"/>
  </g>
 </g>
</svg>
