<svg version="1.0" xmlns="http://www.w3.org/2000/svg" preserveAspectRatio="xMidYMid meet" viewBox="0 0 3800 4520"> <g id="layer101" fill="#ffffff" stroke="none">  <path d="M0 2260 l0 -2260 1900 0 1900 0 0 2260 0 2260 -1900 0 -1900 0 0 -2260z"/>  </g> <g id="layer102" fill="#bd2525" stroke="none">  <path d="M243 2440 c-40 -13 -79 -59 -93 -111 -7 -26 -10 -177 -8 -442 3 -383 4 -404 23 -437 12 -19 36 -43 55 -55 32 -18 51 -20 250 -19 173 0 228 4 280 18 246 67 362 215 376 481 16 285 -109 471 -366 545 -63 18 -107 22 -280 26 -118 2 -218 -1 -237 -6z m407 -41 c272 -34 417 -178 436 -435 23 -300 -115 -491 -390 -539 -122 -21 -391 -21 -444 1 -67 26 -67 23 -70 469 -4 541 -16 514 233 515 83 0 188 -5 235 -11z"/>  <path d="M492 2284 c-119 -82 -175 -161 -187 -265 l-6 -54 22 40 c44 80 205 205 264 205 25 0 145 -108 145 -131 0 -28 -51 -49 -148 -60 -48 -6 -106 -13 -129 -15 -23 -3 -56 -15 -75 -27 -62 -42 -139 -205 -121 -255 9 -24 105 -101 158 -126 20 -10 63 -22 96 -29 56 -10 60 -13 56 -34 -5 -27 14 -30 53 -8 53 30 65 14 24 -34 -14 -17 -23 -31 -19 -31 22 0 68 36 96 75 34 48 49 56 49 28 0 -10 10 3 23 27 19 38 26 45 50 43 26 -2 28 0 25 34 -2 25 2 39 14 46 21 14 36 1 20 -15 -23 -23 -12 -28 13 -6 24 21 31 50 19 82 -7 18 -67 22 -87 6 -41 -34 -91 -70 -98 -70 -22 0 -6 30 27 49 19 12 32 26 29 31 -9 15 14 40 36 40 22 0 24 11 7 28 -18 18 -79 14 -111 -7 l-29 -19 22 -15 c25 -17 22 -19 -42 -37 -46 -12 -88 -41 -88 -61 0 -6 7 -6 19 1 21 10 54 3 46 -10 -9 -15 -74 -20 -122 -10 -71 16 -123 53 -123 89 0 16 6 33 13 38 6 6 68 18 137 28 138 18 277 50 299 68 10 8 12 28 9 72 -7 76 -44 152 -106 214 -52 52 -163 131 -184 131 -8 0 -51 -25 -96 -56z m328 -593 c0 -13 -29 -35 -37 -28 -7 8 15 37 28 37 5 0 9 -4 9 -9z"/>  <path d="M1353 2435 c-53 -15 -123 -53 -123 -68 0 -7 45 -90 57 -106 1 -2 29 10 62 28 90 48 181 37 181 -23 0 -30 -32 -58 -109 -95 -103 -49 -141 -95 -141 -170 0 -74 40 -136 109 -168 47 -23 143 -20 214 7 65 25 68 34 26 104 l-20 35 -42 -20 c-56 -25 -111 -25 -137 1 -40 40 -23 60 96 119 43 21 94 55 113 75 30 31 35 44 39 94 6 84 -25 139 -102 179 -41 21 -160 26 -223 8z"/>  <path d="M1955 2446 c-5 -3 -27 -7 -48 -11 -42 -7 -99 -52 -125 -99 -15 -27 -17 -64 -17 -271 l0 -240 65 0 65 0 5 216 c5 218 8 234 45 261 6 4 30 8 55 8 25 0 50 -4 55 -8 37 -27 40 -43 45 -261 l5 -216 44 -3 c25 -2 55 -1 68 3 l23 5 0 218 c0 120 -5 234 -11 255 -12 43 -59 101 -98 122 -26 13 -156 28 -176 21z"/>  <path d="M2463 2441 c-47 -12 -143 -61 -143 -72 0 -8 42 -88 56 -108 2 -2 31 11 65 28 94 47 179 36 179 -24 0 -33 -20 -50 -111 -96 -100 -50 -139 -98 -139 -171 0 -55 10 -80 49 -121 38 -41 87 -59 160 -59 69 1 171 35 171 57 0 7 -10 33 -22 57 -13 23 -23 44 -24 46 -1 1 -22 -7 -48 -18 -61 -26 -110 -26 -136 0 -11 11 -20 24 -20 29 0 21 41 54 115 90 126 63 155 96 155 178 0 116 -68 179 -201 188 -41 2 -88 0 -106 -4z"/>  <path d="M2842 2133 l3 -308 65 0 65 0 3 123 3 122 99 0 99 0 3 -122 3 -123 65 0 65 0 0 305 0 305 -67 3 -68 3 0 -126 0 -125 -100 0 -100 0 0 125 0 125 -70 0 -70 0 2 -307z"/>  <path d="M3410 2130 l0 -310 70 0 70 0 0 310 0 310 -70 0 -70 0 0 -310z"/>  <path d="M1227 1713 c-4 -3 -7 -91 -7 -195 l0 -188 89 0 c101 0 127 7 165 45 41 41 59 85 59 145 0 123 -91 200 -238 200 -34 0 -65 -3 -68 -7z m149 -88 c57 -23 81 -104 49 -165 -16 -32 -61 -60 -95 -60 -19 0 -20 6 -20 120 0 133 0 133 66 105z"/>  <path d="M1587 1713 c-4 -3 -7 -91 -7 -193 l0 -187 89 -7 c72 -6 95 -4 120 8 44 23 61 54 61 110 0 43 -4 53 -36 83 l-36 34 39 46 c21 25 48 57 60 72 12 14 22 29 23 34 0 4 -24 7 -52 7 l-53 -1 -60 -77 -60 -76 -3 77 -3 77 -38 0 c-21 0 -41 -3 -44 -7z m151 -229 c32 -22 26 -64 -11 -82 -44 -21 -57 -10 -57 48 0 45 2 50 23 50 12 0 33 -7 45 -16z"/>  <path d="M1930 1717 c0 -2 25 -64 56 -138 30 -74 67 -162 81 -196 24 -61 26 -63 62 -63 34 0 37 3 57 53 12 28 45 108 74 177 28 69 56 135 61 148 8 21 6 22 -40 22 l-49 0 -47 -120 c-26 -66 -51 -122 -55 -125 -4 -3 -19 26 -33 63 -14 37 -35 93 -47 125 l-21 57 -50 0 c-27 0 -49 -2 -49 -3z"/>  <path d="M2475 1701 c-96 -58 -131 -183 -79 -283 20 -39 32 -51 75 -77 47 -29 151 -29 197 -1 44 27 49 44 18 75 l-26 26 -27 -20 c-28 -23 -82 -28 -114 -11 -57 31 -65 147 -14 200 37 38 91 41 123 7 37 -39 29 -57 -23 -57 -43 0 -45 -1 -45 -30 l0 -30 95 0 95 0 0 39 c0 71 -39 134 -102 167 -39 21 -136 18 -173 -5z"/>  <path d="M2870 1699 c-90 -55 -125 -171 -80 -264 25 -53 38 -68 80 -94 42 -25 130 -28 183 -6 46 19 92 75 107 132 26 90 -26 204 -107 238 -53 22 -141 19 -183 -6z m148 -75 c32 -22 52 -67 52 -115 0 -82 -97 -139 -156 -91 -32 26 -44 55 -44 109 1 89 83 143 148 97z"/>  <path d="M3210 1521 l0 -201 44 0 44 0 63 101 c105 166 98 164 99 22 l0 -123 45 0 45 0 0 200 0 200 -45 0 -44 0 -80 -122 -80 -123 -3 120 -3 120 -42 3 -43 3 0 -200z"/>  </g> <g id="layer103" fill="#bd2525" stroke="none">  <path d="M224 2429 c-22 -11 -52 -56 -69 -101 -6 -18 -8 -168 -5 -412 3 -211 1 -382 -3 -379 -9 5 1 -44 15 -70 18 -35 43 -58 77 -73 48 -20 391 -19 481 1 90 21 200 64 200 77 0 5 4 8 9 8 18 0 84 68 77 79 -4 6 -26 -5 -60 -33 -75 -61 -139 -88 -261 -111 -16 -3 -118 -6 -226 -7 -219 -2 -232 1 -266 65 -16 29 -18 68 -18 437 0 536 -17 501 254 499 91 0 177 0 190 0 35 1 173 -26 204 -40 15 -7 27 -16 27 -21 0 -4 7 -8 16 -8 30 0 143 -100 144 -127 0 -7 4 -13 8 -13 5 0 16 -19 26 -42 9 -24 21 -51 26 -60 6 -10 14 -58 20 -107 8 -70 7 -112 -4 -187 -8 -54 -13 -101 -11 -105 3 -4 -2 -10 -11 -13 -10 -4 -13 -13 -9 -27 5 -13 3 -19 -3 -15 -12 7 -55 -61 -47 -75 4 -5 9 -9 13 -9 20 0 83 150 96 231 13 77 7 223 -12 289 -36 123 -104 226 -139 213 -12 -5 -15 -2 -10 10 7 18 -1 25 -63 59 -41 23 -134 56 -170 61 -8 2 -19 5 -25 8 -20 11 -450 9 -471 -2z"/>  <path d="M1365 2430 c4 -6 -4 -10 -20 -10 -23 0 -62 -16 -75 -31 -3 -3 -13 -8 -22 -12 -15 -5 -16 -10 -6 -32 6 -14 15 -25 20 -25 4 0 8 -7 8 -15 0 -9 7 -18 15 -21 8 -4 12 -10 9 -16 -3 -5 3 -4 15 4 12 7 21 16 21 20 0 5 9 8 20 8 11 0 20 5 20 10 0 6 28 10 65 10 70 0 115 -19 115 -49 0 -14 -2 -14 -10 -1 -7 11 -10 7 -10 -17 0 -25 -6 -34 -30 -45 -16 -7 -30 -16 -30 -20 0 -5 -7 -8 -15 -8 -8 0 -15 -4 -15 -10 0 -5 -9 -10 -20 -10 -21 0 -44 -16 -96 -68 -30 -30 -33 -38 -32 -92 0 -33 5 -60 10 -60 5 0 6 -4 3 -10 -3 -5 -1 -10 4 -10 6 0 11 -5 11 -11 0 -5 -5 -7 -12 -3 -6 4 -8 3 -5 -4 4 -5 17 -8 28 -5 18 5 20 3 14 -16 -5 -15 -2 -21 9 -21 9 0 16 -4 16 -10 0 -5 9 -10 19 -10 11 0 23 -4 26 -10 3 -5 35 -10 71 -10 36 0 64 4 64 10 0 6 14 10 31 10 17 0 28 4 24 10 -4 6 5 10 19 10 19 0 26 5 26 20 0 23 -4 24 -30 10 -14 -7 -19 -5 -23 10 -6 25 1 32 24 19 15 -7 17 -6 13 6 -4 8 -10 15 -15 15 -5 0 -9 7 -9 16 0 11 -6 14 -22 8 -13 -3 -24 -11 -26 -15 -6 -14 -122 -11 -136 4 -21 21 -26 56 -8 66 13 8 14 12 3 25 -8 9 -9 16 -3 16 6 0 13 -6 16 -12 5 -10 7 -10 12 0 3 6 14 12 25 12 10 0 19 5 19 10 0 6 6 10 13 10 18 0 67 24 67 33 0 4 6 7 13 7 16 0 61 39 75 67 16 29 15 90 0 96 -10 4 -10 7 0 15 11 7 10 16 -4 45 -14 29 -23 37 -45 37 -23 0 -26 3 -22 21 5 19 3 21 -20 17 -16 -3 -25 -1 -24 6 1 7 -30 12 -91 14 -63 2 -92 -1 -87 -8z m-52 -84 c4 -10 1 -13 -9 -9 -7 3 -14 9 -14 14 0 14 17 10 23 -5z m177 4 c0 -5 -4 -10 -10 -10 -5 0 -10 5 -10 10 0 6 5 10 10 10 6 0 10 -4 10 -10z m140 0 c0 -5 -7 -10 -16 -10 -8 0 -12 5 -9 10 3 6 10 10 16 10 5 0 9 -4 9 -10z m-320 -40 c0 -5 -4 -10 -10 -10 -5 0 -10 5 -10 10 0 6 5 10 10 10 6 0 10 -4 10 -10z m323 -51 c5 -3 2 -9 -7 -12 -12 -5 -16 0 -16 15 0 12 3 17 8 12 4 -5 11 -12 15 -15z m-86 -61 c-3 -8 -6 -5 -6 6 -1 11 2 17 5 13 3 -3 4 -12 1 -19z m103 12 c0 -5 -4 -10 -10 -10 -5 0 -10 5 -10 10 0 6 5 10 10 10 6 0 10 -4 10 -10z m-115 -40 c-3 -5 -10 -10 -16 -10 -5 0 -9 5 -9 10 0 6 7 10 16 10 8 0 12 -4 9 -10z m-128 -47 c-4 -3 -7 0 -7 7 0 7 3 10 7 7 3 -4 3 -10 0 -14z m-37 -53 c0 -5 -9 -10 -20 -10 -11 0 -20 5 -20 10 0 6 9 10 20 10 11 0 20 -4 20 -10z m-40 -40 c0 -5 -2 -10 -4 -10 -3 0 -8 5 -11 10 -3 6 -1 10 4 10 6 0 11 -4 11 -10z m67 -7 c-4 -3 -7 0 -7 7 0 7 3 10 7 7 3 -4 3 -10 0 -14z m28 -93 c3 -5 4 -10 1 -10 -3 0 -8 5 -11 10 -3 6 -4 10 -1 10 3 0 8 -4 11 -10z m65 -81 c0 -14 -17 -10 -23 5 -4 10 -1 13 9 9 7 -3 14 -9 14 -14z m-60 1 c0 -5 -4 -10 -10 -10 -5 0 -10 5 -10 10 0 6 5 10 10 10 6 0 10 -4 10 -10z"/>  <path d="M1910 2430 c0 -5 5 -10 10 -10 6 0 10 -4 10 -10 0 -5 -7 -10 -15 -10 -8 0 -15 5 -15 10 0 6 -9 10 -20 10 -11 0 -20 -4 -20 -10 0 -5 -5 -10 -11 -10 -18 0 -59 -53 -59 -77 0 -12 -5 -23 -11 -25 -9 -3 -9 -10 1 -27 9 -18 9 -25 0 -31 -10 -6 -13 -158 -9 -391 0 -14 11 -16 62 -14 l62 2 3 199 c1 110 4 208 7 220 5 25 34 58 55 63 29 7 85 1 88 -9 2 -5 9 -10 16 -10 31 0 40 -54 44 -257 l4 -203 58 0 57 0 2 200 c2 196 2 200 -18 200 -14 0 -21 6 -21 20 0 11 0 23 -1 27 -2 18 19 11 29 -9 10 -22 11 -22 11 7 1 19 -6 36 -18 45 -11 7 -18 17 -16 21 6 9 -30 49 -44 49 -6 0 -11 5 -11 10 0 6 -18 10 -40 10 -22 0 -40 5 -40 10 0 6 -20 10 -45 10 -36 0 -45 -3 -45 -17 -1 -17 -1 -17 -14 0 -14 18 -46 23 -46 7z m215 -40 c3 -5 4 -10 1 -10 -3 0 -8 5 -11 10 -3 6 -4 10 -1 10 3 0 8 -4 11 -10z m-237 -29 c3 -8 -1 -12 -9 -9 -7 2 -15 10 -17 17 -3 8 1 12 9 9 7 -2 15 -10 17 -17z m-38 -6 c0 -8 -7 -15 -15 -15 -16 0 -20 12 -8 23 11 12 23 8 23 -8z m238 -15 c-1 -16 -3 -30 -4 -30 -30 0 -47 43 -21 53 24 10 27 7 25 -23z m-281 -17 c-4 -3 -7 0 -7 7 0 7 3 10 7 7 3 -4 3 -10 0 -14z m70 -50 c-9 -9 -19 -14 -23 -11 -10 10 6 28 24 28 15 0 15 -1 -1 -17z m290 -30 c-4 -3 -10 -3 -14 0 -3 4 0 7 7 7 7 0 10 -3 7 -7z m23 -373 c0 -5 -7 -10 -15 -10 -8 0 -15 5 -15 10 0 6 7 10 15 10 8 0 15 -4 15 -10z m-300 -14 c0 -3 -5 -8 -12 -12 -7 -4 -8 -3 -4 4 7 12 16 16 16 8z"/>  <path d="M2450 2430 c0 -5 -13 -10 -30 -10 -16 0 -30 -4 -30 -10 0 -5 -7 -10 -15 -10 -8 0 -15 -4 -15 -9 0 -5 -7 -17 -16 -25 -14 -15 -14 -17 0 -32 9 -8 16 -19 16 -24 0 -5 7 -16 16 -25 15 -14 18 -14 40 0 13 8 30 15 39 15 8 0 15 5 15 10 0 6 30 10 69 10 69 0 83 -8 80 -44 0 -5 5 -12 12 -16 9 -6 8 -12 -4 -25 -10 -9 -17 -21 -17 -26 0 -5 -7 -9 -15 -9 -9 0 -15 -9 -16 -22 0 -19 -2 -20 -7 -6 -7 16 -10 16 -36 3 -15 -8 -35 -15 -42 -15 -8 0 -14 -4 -14 -8 0 -5 -11 -15 -25 -22 -13 -7 -22 -17 -19 -22 3 -4 0 -8 -6 -8 -20 0 -40 -28 -40 -57 0 -22 -2 -25 -10 -13 -7 11 -10 4 -10 -27 0 -24 5 -43 11 -43 5 0 7 -4 4 -10 -3 -5 -1 -10 5 -10 6 0 8 -5 4 -11 -3 -6 7 -24 22 -40 25 -27 30 -28 40 -14 9 12 14 13 20 4 4 -7 2 -15 -4 -17 -19 -6 -14 -22 7 -22 11 0 23 -4 26 -10 3 -5 35 -10 70 -10 35 0 67 5 70 10 4 6 -5 10 -19 10 -14 0 -26 5 -26 11 0 7 7 8 18 4 36 -14 82 -18 82 -6 0 6 9 11 19 11 25 0 38 20 14 21 -10 1 -22 1 -28 0 -5 -1 -2 5 8 13 15 12 16 18 6 40 -13 29 -29 35 -29 11 0 -16 -15 -21 -23 -7 -3 4 -34 6 -70 4 -57 -3 -66 -6 -71 -25 -5 -18 -8 -19 -16 -7 -5 9 -5 19 0 24 9 9 2 37 -12 47 -11 7 12 59 26 59 6 0 22 9 36 20 14 11 35 20 48 20 12 0 22 5 22 10 0 6 8 10 18 10 10 0 24 9 32 20 8 11 18 20 23 20 13 0 37 27 30 34 -4 3 -2 6 4 6 30 0 43 101 18 136 -8 12 -12 24 -8 27 7 8 -22 37 -37 37 -6 0 -9 4 -6 8 3 5 -7 15 -22 22 -15 7 -35 16 -44 21 -25 12 -188 11 -188 -1z m10 -80 c0 -5 -7 -10 -15 -10 -8 0 -15 5 -15 10 0 6 7 10 15 10 8 0 15 -4 15 -10z m270 -20 c0 -5 -4 -10 -10 -10 -5 0 -10 5 -10 10 0 6 5 10 10 10 6 0 10 -4 10 -10z m-70 -20 c0 -5 -2 -10 -4 -10 -3 0 -8 5 -11 10 -3 6 -1 10 4 10 6 0 11 -4 11 -10z m17 -47 c-4 -3 -7 0 -7 7 0 7 3 10 7 7 3 -4 3 -10 0 -14z m73 -13 c0 -5 -2 -10 -4 -10 -3 0 -8 5 -11 10 -3 6 -1 10 4 10 6 0 11 -4 11 -10z m-63 -87 c-4 -3 -7 0 -7 7 0 7 3 10 7 7 3 -4 3 -10 0 -14z m-80 -10 c-4 -3 -10 -3 -14 0 -3 4 0 7 7 7 7 0 10 -3 7 -7z m-17 -39 c0 -3 -7 -12 -15 -21 -20 -19 -32 -10 -14 11 14 15 29 21 29 10z m-113 -151 c-4 -3 -7 0 -7 7 0 7 3 10 7 7 3 -4 3 -10 0 -14z m-27 -53 c0 -5 -4 -10 -10 -10 -5 0 -10 5 -10 10 0 6 5 10 10 10 6 0 10 -4 10 -10z m220 0 c0 -5 -2 -10 -4 -10 -3 0 -8 5 -11 10 -3 6 -1 10 4 10 6 0 11 -4 11 -10z m-103 -27 c-4 -3 -7 0 -7 7 0 7 3 10 7 7 3 -4 3 -10 0 -14z"/>  <path d="M2963 2423 c-7 -2 -13 -11 -13 -19 0 -8 -4 -14 -10 -14 -5 0 -7 7 -4 15 5 12 -3 15 -42 15 l-49 0 3 -90 c2 -54 8 -90 14 -90 7 0 7 -4 0 -12 -13 -16 -16 -69 -14 -245 l2 -143 61 0 60 0 -3 120 -3 120 113 0 112 0 0 -119 c0 -133 0 -133 83 -123 l37 4 0 288 c0 332 9 307 -107 292 -9 -2 -13 -36 -15 -119 l-3 -118 -107 0 c-83 0 -108 3 -110 14 -2 7 -1 62 2 122 3 60 5 109 5 108 0 0 -6 -3 -12 -6z m267 -233 c0 -5 -2 -10 -4 -10 -3 0 -8 5 -11 10 -3 6 -1 10 4 10 6 0 11 -4 11 -10z m-23 -57 c-4 -3 -10 -3 -14 0 -3 4 0 7 7 7 7 0 10 -3 7 -7z m-317 -253 c0 -11 -2 -20 -4 -20 -2 0 -6 9 -9 20 -3 11 -1 20 4 20 5 0 9 -9 9 -20z m57 13 c-4 -3 -10 -3 -14 0 -3 4 0 7 7 7 7 0 10 -3 7 -7z"/>  <path d="M3438 2423 l-28 -4 0 -290 0 -289 55 0 c51 0 72 11 43 23 -10 4 -10 8 2 16 8 5 18 7 22 5 4 -3 8 117 8 265 0 251 -1 271 -17 272 -10 0 -27 2 -38 3 -11 1 -32 1 -47 -1z m32 -33 c0 -5 -9 -10 -20 -10 -11 0 -20 5 -20 10 0 6 9 10 20 10 11 0 20 -4 20 -10z m60 0 c0 -5 -7 -7 -15 -4 -8 4 -15 8 -15 10 0 2 7 4 15 4 8 0 15 -4 15 -10z m-83 -497 c-4 -3 -10 -3 -14 0 -3 4 0 7 7 7 7 0 10 -3 7 -7z"/>  <path d="M492 2284 c-119 -82 -175 -161 -187 -265 l-6 -54 22 40 c44 80 205 205 264 205 25 0 145 -108 145 -131 0 -28 -51 -49 -148 -60 -48 -6 -106 -13 -129 -15 -23 -3 -56 -15 -75 -27 -62 -42 -139 -205 -121 -255 9 -24 105 -101 158 -126 20 -10 63 -22 96 -29 56 -10 60 -13 56 -34 -5 -28 9 -29 58 -6 44 21 55 11 27 -27 -29 -39 -28 -43 7 -25 16 8 44 35 62 60 34 48 49 56 49 28 0 -10 10 3 23 27 19 38 26 45 50 43 26 -2 28 0 25 34 -2 25 2 39 14 46 21 14 36 1 20 -15 -23 -23 -12 -28 13 -6 24 21 31 50 19 82 -7 18 -67 22 -87 6 -48 -40 -92 -70 -103 -70 -23 0 -4 28 32 50 20 11 32 25 29 30 -9 15 14 40 36 40 22 0 24 11 7 28 -18 18 -79 14 -111 -7 l-29 -19 22 -15 c25 -17 22 -19 -42 -37 -46 -12 -88 -41 -88 -61 0 -6 7 -6 19 1 21 10 54 3 46 -10 -9 -15 -74 -20 -122 -10 -71 16 -123 53 -123 89 0 16 6 33 13 38 6 6 68 18 137 28 138 18 277 50 299 68 10 8 12 28 9 72 -7 76 -44 152 -106 214 -52 52 -163 131 -184 131 -8 0 -51 -25 -96 -56z m328 -592 c0 -13 -23 -32 -39 -32 -11 0 -10 4 4 20 19 21 35 26 35 12z"/>  <path d="M3530 1850 c0 -7 3 -10 7 -7 3 4 3 10 0 14 -4 3 -7 0 -7 -7z"/>  <path d="M2600 1710 c0 -6 -27 -9 -62 -9 -39 1 -64 -3 -66 -10 -2 -6 -10 -11 -18 -11 -15 0 -8 -29 10 -43 6 -4 -2 -5 -18 -1 -31 7 -46 -6 -46 -44 0 -13 -4 -21 -9 -18 -13 9 -22 -55 -12 -89 14 -48 33 -85 44 -85 6 0 7 -3 4 -6 -8 -8 43 -54 60 -54 6 0 13 3 16 8 2 4 2 2 1 -5 -4 -18 56 -28 68 -12 7 11 11 11 15 2 6 -15 33 -17 33 -3 0 6 12 10 27 10 14 0 23 3 20 6 -4 4 3 16 15 26 17 15 19 21 9 27 -16 10 -82 3 -95 -10 -14 -13 -43 -11 -67 4 -17 10 -23 10 -26 0 -5 -15 -33 -18 -33 -4 0 5 10 11 21 14 20 5 20 7 6 21 -9 9 -20 16 -25 16 -13 0 -7 122 7 148 7 12 9 27 6 32 -3 5 0 7 8 4 8 -3 17 2 20 10 3 8 14 12 25 10 12 -4 22 2 30 18 11 22 11 22 17 3 3 -12 18 -26 33 -33 31 -13 54 -62 41 -83 -6 -10 -9 -11 -9 -1 0 7 -15 12 -40 12 -38 0 -40 -2 -40 -30 l0 -30 85 0 85 0 -5 66 c-5 52 -11 71 -31 91 -13 13 -24 20 -24 16 0 -4 -6 -1 -13 7 -16 20 -67 43 -67 30z m72 -112 c-9 -9 -12 -7 -12 12 0 19 3 21 12 12 9 -9 9 -15 0 -24z m-255 5 c-4 -3 -7 0 -7 7 0 7 3 10 7 7 3 -4 3 -10 0 -14z m33 -13 c0 -5 -4 -10 -10 -10 -5 0 -10 5 -10 10 0 6 5 10 10 10 6 0 10 -4 10 -10z m260 -40 c0 -5 -7 -10 -15 -10 -8 0 -15 5 -15 10 0 6 7 10 15 10 8 0 15 -4 15 -10z m-60 -181 c0 -5 -4 -9 -10 -9 -5 0 -10 7 -10 16 0 8 5 12 10 9 6 -3 10 -10 10 -16z m-40 1 c0 -5 -4 -10 -10 -10 -5 0 -10 5 -10 10 0 6 5 10 10 10 6 0 10 -4 10 -10z"/>  <path d="M2910 1710 c0 -5 -9 -10 -20 -10 -11 0 -20 -4 -20 -10 0 -5 -7 -10 -15 -10 -9 0 -19 -8 -22 -17 -4 -10 -15 -26 -26 -35 -10 -9 -16 -21 -13 -26 2 -4 -1 -26 -9 -48 -16 -44 -19 -78 -7 -70 4 2 14 1 22 -5 10 -6 11 -9 3 -9 -7 0 -13 -11 -13 -25 0 -14 4 -25 9 -25 6 0 18 -13 28 -30 9 -16 26 -30 36 -30 10 0 15 -4 12 -10 -3 -5 3 -10 14 -10 12 0 21 -4 21 -10 0 -5 7 -10 15 -10 8 0 15 5 15 10 0 6 -7 10 -15 10 -8 0 -15 5 -15 10 0 19 38 10 43 -10 5 -21 51 -29 62 -10 3 6 15 10 25 10 22 0 61 30 54 41 -2 4 4 10 14 13 10 4 25 18 33 32 18 34 18 169 0 186 -11 11 -12 9 -6 -9 5 -18 2 -23 -10 -23 -11 0 -15 5 -11 15 3 8 9 22 12 30 3 8 2 15 -4 15 -6 0 -12 -6 -15 -12 -2 -7 -8 -9 -13 -5 -5 4 -2 12 6 17 12 7 9 14 -15 34 -17 14 -38 26 -47 26 -10 0 -18 5 -18 10 0 6 -25 10 -55 10 -30 0 -55 -4 -55 -10z m107 -25 c8 -9 12 -19 8 -23 -4 -4 -10 -1 -12 6 -3 6 -13 12 -24 12 -10 0 -19 5 -19 10 0 15 30 12 47 -5z m14 -58 c29 -23 40 -58 38 -120 -2 -52 -6 -66 -28 -86 -18 -16 -20 -21 -8 -18 11 4 17 1 17 -8 0 -17 -55 -21 -65 -5 -3 6 -18 7 -32 4 -48 -12 -94 71 -91 164 2 27 7 42 15 42 7 0 13 8 13 18 0 16 9 19 63 20 36 1 68 -3 78 -11z m-201 -77 c0 -5 -4 -10 -10 -10 -5 0 -10 5 -10 10 0 6 5 10 10 10 6 0 10 -4 10 -10z m40 -120 c0 -5 -5 -10 -11 -10 -5 0 -7 5 -4 10 3 6 8 10 11 10 2 0 4 -4 4 -10z m20 -40 c0 -5 -9 -10 -20 -10 -11 0 -20 5 -20 10 0 6 9 10 20 10 11 0 20 -4 20 -10z m87 -7 c-4 -3 -10 -3 -14 0 -3 4 0 7 7 7 7 0 10 -3 7 -7z"/>  <path d="M1257 1702 l-27 -3 2 -182 3 -182 58 -3 c45 -2 57 0 57 12 0 12 6 12 37 3 28 -9 37 -9 41 1 2 7 9 12 16 12 6 0 18 10 26 21 8 12 21 27 28 35 6 7 12 19 12 27 0 9 5 17 12 19 9 3 9 22 -1 78 -10 65 -16 78 -51 112 -21 21 -43 38 -49 38 -18 0 -12 -38 7 -43 16 -4 16 -5 0 -6 -10 0 -25 11 -35 27 -10 15 -22 30 -26 33 -10 7 -65 8 -110 1z m144 -79 c62 -53 65 -140 7 -194 -23 -21 -23 -29 2 -29 11 0 20 -4 20 -10 0 -5 -13 -10 -30 -10 -16 0 -30 5 -30 10 0 6 -9 10 -20 10 -11 0 -20 -6 -20 -12 0 -9 -4 -8 -10 2 -5 8 -10 68 -10 133 l0 117 35 0 c19 0 44 -8 56 -17z m89 -33 c0 -5 -7 -10 -15 -10 -8 0 -15 5 -15 10 0 6 7 10 15 10 8 0 15 -4 15 -10z"/>  <path d="M1597 1703 c-3 -5 -5 -90 -6 -189 l-1 -181 68 -6 c37 -3 71 -1 76 4 6 5 22 9 37 9 20 0 35 10 53 33 39 51 33 107 -10 107 -13 0 -24 5 -24 10 0 6 9 10 20 10 18 0 19 2 8 20 -13 21 -48 28 -48 10 0 -16 -17 -12 -24 6 -7 17 17 47 29 36 3 -4 4 5 0 21 -7 25 -5 27 24 27 17 0 31 5 31 10 0 6 -4 10 -10 10 -5 0 -10 5 -10 11 0 6 9 9 20 6 11 -3 20 -1 20 3 0 5 3 15 6 24 5 13 -1 16 -34 16 -44 0 -61 -21 -40 -49 12 -14 11 -14 -4 -3 -20 16 -34 6 -57 -37 -11 -19 -11 -25 0 -33 11 -7 11 -11 2 -15 -7 -2 -13 -13 -13 -24 0 -10 -4 -19 -10 -19 -14 0 -13 23 2 38 6 6 9 15 5 18 -4 4 -15 -2 -25 -14 -17 -20 -18 -18 -17 56 1 44 -4 80 -9 84 -14 10 -54 10 -59 1z m33 -53 c0 -5 -7 -10 -15 -10 -8 0 -15 5 -15 10 0 6 7 10 15 10 8 0 15 -4 15 -10z m0 -64 c0 -8 -4 -18 -10 -21 -5 -3 -10 -4 -10 -1 0 2 -3 11 -6 20 -4 11 -1 16 10 16 9 0 16 -6 16 -14z m132 -101 c15 -20 8 -58 -14 -77 -12 -10 -23 -29 -23 -41 0 -15 -7 -23 -23 -25 -20 -3 -23 0 -17 17 4 12 2 21 -4 21 -7 0 -11 24 -11 61 l0 61 43 -3 c23 -2 45 -8 49 -14z m68 -35 c0 -5 -4 -10 -10 -10 -5 0 -10 5 -10 10 0 6 5 10 10 10 6 0 10 -4 10 -10z m-192 -38 c2 -7 -3 -12 -12 -12 -9 0 -16 7 -16 16 0 17 22 14 28 -4z m172 -23 c0 -5 -9 -9 -20 -9 -11 0 -20 6 -20 14 0 9 7 12 20 9 11 -3 20 -9 20 -14z m-176 -33 c-6 -15 -24 -23 -24 -11 0 8 24 34 28 30 1 -1 0 -10 -4 -19z"/>  <path d="M1949 1702 c7 -5 11 -14 7 -20 -10 -16 16 -64 31 -58 11 5 12 -2 7 -29 -4 -23 -2 -35 5 -35 6 0 11 -6 11 -13 0 -7 9 -32 20 -55 11 -22 20 -45 20 -50 0 -5 12 -35 26 -66 21 -46 30 -56 50 -56 26 0 64 49 64 83 0 9 4 17 8 17 4 0 14 21 21 47 8 25 21 59 28 75 8 15 11 33 7 39 -3 6 0 15 7 20 12 8 12 11 -1 18 -8 6 -11 14 -6 18 5 4 11 2 13 -4 7 -20 23 -15 23 6 0 11 6 26 14 34 20 20 7 32 -36 32 -41 0 -59 -11 -34 -21 22 -8 20 -27 -2 -22 -15 4 -18 1 -14 -18 3 -18 0 -24 -13 -24 -11 0 -15 -5 -11 -15 3 -8 2 -15 -3 -15 -4 0 -16 -29 -26 -65 -23 -81 -44 -86 -64 -17 -8 26 -17 49 -21 52 -3 3 -14 30 -23 60 -24 75 -26 78 -77 85 -30 5 -40 3 -31 -3z m138 -209 c-4 -3 -10 -3 -14 0 -3 4 0 7 7 7 7 0 10 -3 7 -7z m40 -85 c-3 -7 -5 -2 -5 12 0 14 2 19 5 13 2 -7 2 -19 0 -25z m-17 -18 c0 -5 -4 -10 -10 -10 -5 0 -10 5 -10 10 0 6 5 10 10 10 6 0 10 -4 10 -10z m15 -40 c3 -5 1 -10 -4 -10 -6 0 -11 5 -11 10 0 6 2 10 4 10 3 0 8 -4 11 -10z"/>  <path d="M3229 1703 c-15 -3 -17 -25 -17 -171 0 -101 4 -172 10 -179 7 -9 7 -13 -1 -13 -6 0 -11 -4 -11 -10 0 -5 21 -10 46 -10 27 0 43 4 39 10 -3 6 -15 10 -26 10 -11 0 -17 5 -14 10 9 14 45 12 45 -2 0 -7 11 4 25 24 14 20 25 44 25 52 0 9 4 16 8 16 5 0 15 12 23 28 8 15 22 34 31 43 10 9 18 23 18 32 0 13 19 27 37 27 3 0 4 -42 3 -92 -4 -159 -4 -158 29 -158 25 0 30 5 35 34 7 36 0 66 -16 66 -6 0 -4 7 3 17 15 17 24 207 13 251 -7 25 -24 30 -24 7 0 -8 -7 -15 -15 -15 -18 0 -20 16 -2 24 6 3 1 3 -13 0 -14 -4 -25 -7 -25 -8 0 0 -15 -22 -33 -48 -17 -25 -32 -51 -32 -57 0 -6 -4 -11 -8 -11 -5 0 -14 -12 -21 -26 -10 -22 -9 -29 6 -41 17 -13 16 -13 -4 -4 -29 15 -29 15 -43 -19 -16 -39 -30 -38 -31 3 0 17 -1 73 -2 122 -2 82 -4 90 -22 92 -11 0 -27 -1 -36 -4z m38 -40 c-4 -3 -7 0 -7 7 0 7 3 10 7 7 3 -4 3 -10 0 -14z m203 -53 c0 -5 -2 -10 -4 -10 -3 0 -8 5 -11 10 -3 6 -1 10 4 10 6 0 11 -4 11 -10z m-190 -100 c0 -5 -7 -10 -15 -10 -8 0 -15 5 -15 10 0 6 7 10 15 10 8 0 15 -4 15 -10z m230 -126 c0 -17 -22 -14 -28 4 -2 7 3 12 12 12 9 0 16 -7 16 -16z"/>  <path d="M3540 1450 c0 -7 3 -10 7 -7 3 4 3 10 0 14 -4 3 -7 0 -7 -7z"/>  <path d="M2650 1431 c0 -6 5 -13 10 -16 6 -3 10 1 10 9 0 9 -4 16 -10 16 -5 0 -10 -4 -10 -9z"/>  </g>  </svg>